<svg version="1.1" xmlns="http://www.w3.org/2000/svg" xmlns:xlink="http://www.w3.org/1999/xlink">
  <defs>
    <symbol id="x" viewBox="0 0 32 32">
      <title>x</title>
      <polygon points="13.1153042 16.3076118 0.807611845 3.99991954 4.49991954 0.307611845 16.8076118 12.6153042 29.1153042 0.307611845 32.8076118 3.99991954 20.4999195 16.3076118 32.8076118 28.6153042 29.1153042 32.3076118 16.8076118 19.9999195 4.49991954 32.3076118 0.807611845 28.6153042 13.1153042 16.3076118"></polygon>
    </symbol>

    <symbol id="menu" viewBox="0 0 32 26">
      <title>menu</title>
      <path d="M0.5,4.10526316 L32.5,4.10526316 L32.5,0 L0.5,0 L0.5,4.10526316 Z M0.5,15.0526316 L32.5,15.0526316 L32.5,10.9473684 L0.5,10.9473684 L0.5,15.0526316 Z M0.5,26 L32.5,26 L32.5,21.8947368 L0.5,21.8947368 L0.5,26 Z"></path>
    </symbol>

    <symbol id="search" viewBox="0 0 32 32">
      <title>search</title>
      <path fill-rule="evenodd" d="M7.97242679,21.5024329 C6.30113631,19.2624345 5.31317145,16.4925123 5.31317145,13.4941948 C5.31317145,6.0415568 11.4170559,0 18.946579,0 C26.4761021,0 32.5799866,6.0415568 32.5799866,13.4941948 C32.5799866,20.9468328 26.4761021,26.9883896 18.946579,26.9883896 C16.0871673,26.9883896 13.4333579,26.1170904 11.2413693,24.6280944 L3.79341155,32 L0.579986572,28.8193878 L7.97242679,21.5024329 Z M18.946579,22.4903247 C13.926897,22.4903247 9.85764064,18.4626201 9.85764064,13.4941948 C9.85764064,8.52576947 13.926897,4.49806493 18.946579,4.49806493 C23.9662611,4.49806493 28.0355174,8.52576947 28.0355174,13.4941948 C28.0355174,18.4626201 23.9662611,22.4903247 18.946579,22.4903247 Z"></path>
    </symbol>

    <symbol id="rarr" viewBox="0 0 31 32">
      <title>rarr</title>
      <polygon points="27.580561 18.6195446 14.2340361 31.8319303 10.465692 28.025328 19.966968 18.6195446 0 18.6195446 0 13.2631804 19.9413027 13.2631804 10.4656437 3.78752147 14.2531652 -2.75889239e-13 27.5163456 13.2631804 27.7668996 13.2631804 27.7668996 13.5137344 30.2399998 15.9868346 27.7668996 18.4350788 27.7668996 18.6195446 27.580561 18.6195446"></polygon>
    </symbol>

    <symbol id="larr" viewBox="0 0 31 32">
      <title>larr</title>
      <polygon points="2.65943878 18.6195446 16.0059637 31.8319303 19.7743077 28.025328 10.2730318 18.6195446 30.2399998 18.6195446 30.2399998 13.2631804 10.2986971 13.2631804 19.774356 3.78752147 15.9868346 -2.7533531e-13 2.72365416 13.2631804 2.47310015 13.2631804 2.47310015 13.5137344 0 15.9868346 2.47310015 18.4350788 2.47310015 18.6195446 2.65943878 18.6195446"></polygon>
    </symbol>
  </defs>
</svg>
