<svg version="1.1" xmlns="http://www.w3.org/2000/svg">
  <symbol id="automobile" viewBox="0 0 32 32">
    <title>Automobile</title>
    <path d="M31.855 13.818c-0.145-0.727-0.582-1.309-1.454-1.455-0.145 0-0.145-0.145-0.291-0.291 0-0.436-0.145-0.873-0.145-1.309-0.145-0.873-0.436-1.891-0.873-2.764-0.582-1.309-1.454-2.327-2.618-3.2-0.727-0.582-1.6-1.018-2.618-0.873-0.873 0-1.6 0.582-2.036 1.309-0.145 0.291-0.145 0.436-0.436 0.582-0.145 0.145-0.436 0.291-0.582 0.582-0.145 0.145-0.145 0.145-0.291 0-0.727-0.436-1.454-0.727-2.327-0.727-0.727 0-1.454 0.291-1.891 0.873s-0.873 1.164-1.309 1.745c0 0.436 0 0.436-0.145 0.436-0.291 0.145-0.582 0.291-1.018 0.436-0.727 0.436-1.455 0.727-2.182 1.018s-1.309 0.582-2.036 0.873c-0.727 0.291-1.309 0.582-2.036 0.873s-1.455 0.582-2.182 0.873c-1.164 0.436-2.182 0.873-3.2 1.745-0.291 0.291-0.582 0.582-0.727 1.018-0.145 0.291-0.145 0.727-0.145 1.018 0 0.145 0 0.291-0.145 0.436-0.582 0.873-0.873 1.745-1.018 2.618s0 1.745 0.291 2.473c0.291 0.582 0.727 1.164 1.309 1.454s1.164 0.582 1.745 0.873c0.727 0.291 1.6 0.145 2.327-0.145 0.436-0.145 0.727-0.291 1.164-0.291 0.146 0 0.146 0 0.291 0s0.291 0 0.291 0.145c0 0.436 0.146 0.727 0.291 1.164 0.291 0.582 0.582 1.164 1.164 1.454 0.727 0.436 1.455 0.727 2.182 1.018 0.145 0 0.291 0.145 0.436 0.145 0.873 0.145 1.6-0.145 2.327-0.582 1.018-0.727 1.745-1.6 2.327-2.764 0.436-0.873 0.582-1.745 0.727-2.764 0-0.145 0-0.145 0.145-0.291 0.436-0.145 0.873-0.291 1.309-0.582 1.891-0.727 3.636-1.454 5.527-2.182 0.727-0.291 1.309-0.582 2.036-0.873 0.145 0 0.145 0 0.291 0.145 0 0.145 0 0.291 0.145 0.436 0.291 0.582 0.582 1.018 1.164 1.164 0.436 0.145 0.873 0.145 1.309 0.436 0.582 0.145 1.018 0 1.454-0.291 0.582-0.436 0.873-1.018 1.309-1.6 0.436-1.018 0.727-2.036 0.727-3.055-0.291-0.582-0.436-1.018-0.582-1.309z"></path>
  </symbol>
  <symbol id="battleship" viewBox="0 0 32 32">
    <title>Battleship</title>
    <path d="M24.145 8.582c0.145-0.145 0.291-0.436 0.436-0.582 0.436-0.291 0.727-0.436 1.309-0.291 0.436 0.145 0.727 0.436 0.873 1.018 0.145 0.436 0 0.873-0.291 1.164-0.145 0-0.291 0.291-0.145 0.436 0 0.291 0 0.582 0 0.873 0 0.727 0 1.454-0.145 2.182 0 0 0 0.145 0 0.145 0 0.145 0 0.145 0.145 0.145 0.291 0 0.436 0.145 0.727 0.291 0.145 0.145 0.145 0.291 0.145 0.436s0 0.145 0.145 0c0 0 0.145-0.145 0.145-0.145 0.291-0.145 0.436-0.145 0.727 0.145 0.145 0.145 0.145 0.436-0.145 0.727-0.291 0.145-0.436 0.291-0.727 0.582 0 0-0.145 0.145-0.145 0.145s0 0 0 0 0 0 0.145 0c0 0 0 0 0 0 0.436-0.145 0.873-0.145 1.309-0.145 0.291 0 0.291 0 0.291 0.291 0.145 0.582 0.145 1.164 0.145 1.746 0 0.436 0.145 0.873 0.145 1.309s0.145 0.873 0.145 1.309c0 0.145 0 0.291-0.145 0.436-0.291 0.582-0.582 1.018-0.873 1.454-0.727 0.873-1.454 1.6-2.327 2.182-1.018 0.727-2.182 1.309-3.346 1.891s-2.327 1.018-3.491 1.6c-0.582 0.291-1.164 0.436-1.891 0.727-2.182 0.727-4.218 1.309-6.4 1.891-1.6 0.436-3.055 0.727-4.654 1.018-0.873 0.145-1.891 0.291-3.055 0.436 0 0-0.146 0-0.146 0-0.146 0-0.146-0.145-0.146-0.291 0.146-0.436 0.146-1.018 0.291-1.454 0.146-0.291 0.146-0.727 0.146-1.018 0.146-0.436 0.146-1.018 0.291-1.454 0.146-0.582 0.146-1.164 0.291-1.6 0-0.291 0.146-0.582 0.146-0.873 0-0.145 0-0.145-0.146-0.145-0.291 0-0.582 0-0.873 0.145-0.146 0-0.291 0-0.291-0.291 0-0.436 0-0.727 0-1.164s0-0.873 0-1.164c0-0.291 0-0.582 0-0.873 0-0.145 0-0.291 0.146-0.291 0.727-0.436 1.309-1.018 2.036-1.454 0.291-0.145 0.436-0.145 0.727-0.145 0.291 0.145 0.582 0.145 0.873 0.291 0.146 0 0.146 0 0.146-0.145s0-0.145 0-0.291c0.146-0.291 0.291-0.582 0.727-0.582s0.873 0 1.309 0c0 0 0.145 0 0.145 0 0.291 0 0.291 0 0.291-0.291s0-0.582 0.291-0.727c0.145-0.145 0.291-0.145 0.436-0.145 0.582-0.145 1.164-0.436 1.891-0.436 0.436 0 0.873 0 1.309 0.145 0.291 0 0.291 0 0.436-0.145 0.145-0.291 0.291-0.436 0.436-0.436 0.291-0.145 0.582-0.291 0.873-0.291s0.291-0.145 0.291-0.291c0-0.436 0-0.873 0-1.164 0-0.145 0-0.145-0.145-0.291-0.291-0.145-0.727-0.291-1.018-0.291-0.436-0.436-0.582-0.582-0.582-0.727 0-0.436 0-0.873 0-1.309 0-0.291 0.291-0.727 0.582-0.727 0.582-0.145 1.018-0.436 1.6-0.436 0.145 0 0.145-0.145 0.145-0.291 0-0.582 0-1.309 0-1.891 0-0.873 0-1.6 0.145-2.473 0-0.145 0-0.436 0-0.582s0-0.145-0.145-0.291c-0.145 0-0.291 0-0.436-0.145-0.291-0.145-0.582-0.436-0.582-0.727 0-0.145 0-0.145 0-0.291 0-0.291 0.145-0.582 0.436-0.727 0.291 0.145 0.436 0.145 0.727 0 0.146 0 0.146 0 0.146-0.145 0-0.582 0-1.164 0-1.891 0-0.582 0-1.164 0-1.891 0-0.145 0.145-0.291 0.436-0.436 0.291 0 0.436 0 0.727 0 0.145 0 0.145 0.145 0.145 0.291 0 0.291 0 0.582 0 0.873 0 0.582 0 1.309 0 1.891 0 0.291 0 0.582 0 0.873 0 0.145 0 0.145 0.145 0.145 0.436 0.436 0.582 0.436 0.727 0.436 0.436 0.145 0.582 0.436 0.582 0.727 0 0.145 0 0.291 0 0.436-0.145 0.291-0.436 0.436-0.727 0.436-0.145 0-0.291 0-0.436 0s-0.145 0-0.145 0.145c0 0 0 0.145 0 0.145 0 0.146 0 0.146 0.145 0.146 0.873-0.146 1.6-0.146 2.473 0 0.291 0 0.436 0.145 0.727 0.291 0.291 0.436 0.291 1.018-0.291 1.309 0 0-0.145 0-0.145 0-0.291 0.145-0.291 0-0.291 0.436 0 0.582 0 1.164 0 1.745 0 0.145 0 0.291 0.291 0.145 0.145 0 0.436 0 0.582-0.145s0.291-0.145 0.436-0.145c0.145 0 0.145 0 0.291-0.145 0-0.291 0-0.582 0-0.727 0-0.582 0-1.164 0-1.6 0-0.145 0-0.291-0.291-0.291-0.291-0.145-0.436-0.291-0.436-0.436-0.145-0.291 0-0.582 0.291-0.727s0.582-0.291 0.873-0.291c0.291 0 0.727 0 1.018 0 0.436 0 0.873 0 1.164 0.145 0.291 0 0.436 0.145 0.582 0.436 0.145 0.436-0.145 0.873-0.436 1.018s-0.291 0.146-0.291 0.436 0 0.436 0 0.727zM24 11.782c0 0.145 0 0.291 0 0.436s0.145 0.145 0.291 0.145c0.145 0 0.145-0.145 0.145-0.145 0-0.145 0-0.291 0-0.436 0-0.291 0-0.436 0-0.727 0-0.145 0-0.145-0.145 0s-0.436 0.436-0.291 0.727c0-0.145 0 0 0 0zM17.745 9.164c0-0.145 0-0.436 0-0.582s0-0.291-0.145-0.291c-0.145 0-0.145 0.145-0.145 0.291 0 0.727 0 1.455 0 2.182 0 0.145 0 0.436 0 0.582 0 0 0 0.145 0 0.145s0 0 0 0 0 0 0-0.145c0.291-0.727 0.291-1.454 0.291-2.182zM9.018 21.091c-0.145 0-0.436 0-0.582 0-0.291 0-0.291 0-0.291 0.291 0 0 0 0 0 0 0 0.145 0 0.145 0.145 0.145 0.291-0.145 0.436-0.291 0.727-0.436z"></path>
  </symbol>
  <symbol id="boot" viewBox="0 0 32 32">
    <title>Boot</title>
    <path d="M30.4 1.309c-0.145-0.582-0.582-1.018-1.164-1.164-0.436-0.145-0.873-0.145-1.309-0.145s-0.727 0.145-1.018 0.436c-0.291 0.291-0.582 0.727-0.727 1.164-0.436 1.018-0.727 2.182-1.018 3.345-0.145 0.582-0.291 1.309-0.582 1.891-0.145 0.436-0.436 0.727-0.873 1.018-0.727 0.436-1.454 0.582-2.327 0.727-0.582 0.145-1.164 0.291-1.745 0.582s-1.164 0.436-1.891 0.582c-0.436 0.145-0.873 0.145-1.309 0.145s-0.727-0.145-1.018-0.291c-0.291-0.145-0.727-0.436-1.164-0.436-0.582-0.145-1.018 0-1.164 0.727 0 0.436-0.145 0.727-0.145 1.164 0 0.873 0 1.745 0.145 2.473 0 0.436 0.145 0.873 0 1.309 0 0.582-0.291 1.018-0.291 1.6 0 0.291-0.145 0.727-0.436 1.018-0.145 0.145-0.291 0.436-0.436 0.582-0.291 0.436-0.582 1.018-1.018 1.309 0 0-0.145 0.145-0.145 0.145-0.145 0.291-0.436 0.436-0.727 0.727-0.582 0.436-1.164 1.018-1.891 1.309-1.164 0.582-2.182 1.309-3.345 2.036-0.873 0.582-1.745 1.309-2.327 2.036-0.436 0.582-0.727 1.164-0.873 2.036 0 0.291-0.145 0.727 0 1.018 0 0.145 0.145 0.291 0 0.436 0 0.436 0.145 0.727 0.145 1.164 0 0.291 0.145 0.436 0.436 0.582 0.436 0.291 0.873 0.582 1.455 0.727 0.436 0.145 1.018 0.291 1.455 0.291s0.727 0 1.018 0.146c0.436 0 0.582 0 0.873 0s0.582-0.145 0.873-0.291c0.146 0 0.291 0 0.436 0 0.582 0.145 1.018 0.145 1.455-0.145 0.145-0.145 0.291-0.145 0.436 0 0.291 0.145 0.727 0.145 1.018 0 0.145 0 0.145-0.145 0.291-0.145s0.145-0.145 0.291 0c0.436 0.145 0.873 0.145 1.164-0.291 0.145-0.145 0.291-0.145 0.291-0.145 0.145 0 0.291 0 0.291 0 0.291 0 0.582-0.145 0.727-0.436 0.291 0 0.436 0 0.582 0 0.291 0 0.436 0 0.727-0.291 0 0 0.145-0.145 0.145-0.145 0-0.145 0.145-0.145 0.291-0.145 0.291 0 0.582-0.145 0.873-0.436 0.145-0.145 0.145-0.145 0.291-0.145s0.436-0.145 0.436-0.291c0.145-0.145 0.291-0.436 0.582-0.291 0.145 0 0.291-0.145 0.436-0.291 0-0.145 0.145-0.145 0.291-0.145s0.145 0 0.291-0.145c0.291-0.145 0.436-0.436 0.436-0.582 0-0.291 0.145-0.436 0.291-0.582s0.291-0.291 0.436-0.291c0.436-0.436 1.164-0.582 1.745-0.873 0.145 0 0.291 0 0.291 0 0.436 0.145 0.873 0.291 1.309 0.436 0.291 0.145 0.582 0 0.873-0.145 0.145-0.145 0.291-0.145 0.436-0.145 0.291 0 0.436 0 0.727-0.145 0.145-0.145 0.145-0.145 0.291-0.145 0.291 0 0.436 0 0.727-0.291 0-0.145 0.145-0.145 0.291-0.145 0.291 0 0.436-0.145 0.582-0.291s0.145-0.145 0.291-0.145c0 0 0.145 0 0.145 0 0.145-0.291 0.291-0.436 0.291-0.727 0-0.436 0.145-0.873 0.145-1.164 0 0 0-0.145 0-0.145 0.291-0.873 0.291-1.745 0.145-2.618-0.145-0.727-0.145-1.309-0.291-2.036-0.145-0.582-0.145-1.164-0.291-1.745 0-0.145 0-0.291 0-0.436 0-0.436 0-0.873 0-1.309 0-0.145 0-0.291 0.145-0.436 0.145-0.291 0.291-0.727 0.291-1.164 0-0.145 0.145-0.291 0.145-0.436 0.291-0.291 0.291-0.436 0.436-0.727 0.145-0.436 0-0.727-0.145-1.164-0.291-0.436-0.582-0.727-0.873-1.164-0.436-0.291-0.436-0.436-0.436-0.582 0.145-0.582 0.436-1.164 0.582-1.6 0.291-0.727 0.582-1.455 0.873-2.036 0.436-1.018 1.018-2.036 1.164-3.2 0.145-0.436 0.145-0.582 0.145-0.873z"></path>
  </symbol>
  <symbol id="iron" viewBox="0 0 32 32">
    <title>Iron</title>
    <path d="M6.109 28.655c-0.291 0-0.582 0-1.018 0-0.873 0-1.745 0-2.618-0.145-0.582 0-1.164-0.145-1.745-0.145-0.291 0-0.436-0.145-0.582-0.436-0.145-0.436 0-0.873-0.145-1.454 0-0.145 0-0.291 0-0.436-0.145-0.727 0.145-1.309 0.291-1.891 0.291-0.582 0.727-1.164 1.164-1.6 0.727-0.727 1.455-1.164 2.327-1.745 0.582-0.145 0.873-0.436 1.309-0.582 0.146 0 0.146-0.145 0.146-0.291-0.291-0.873-0.436-1.6-0.582-2.473-0.291-0.873-0.436-1.891-0.727-2.764-0.436-0.873-0.727-1.891-1.018-2.764s-0.146-1.745 0-2.473c0.291-1.018 1.018-1.891 2.036-2.327 0.146 0 0.146-0.145 0.146-0.145 0.146-0.291 0.146-0.582 0.291-0.727 0.436-0.436 0.873-0.727 1.309-0.727 1.018-0.145 2.036-0.291 2.909-0.436 1.164-0.145 2.327-0.291 3.636-0.436 1.018-0.145 2.036-0.291 2.909-0.436 1.454-0.146 2.764-0.291 4.218-0.582 0.727-0.145 1.6-0.145 2.327-0.291 0.582-0.145 1.018 0.145 1.309 0.436 0.145 0.146 0.291 0.291 0.582 0.436 0.291 0 0.436 0.291 0.582 0.436 0 0 0 0 0 0 0.727 0.727 0.582 1.6 0.436 2.473-0.291 1.6-0.582 3.2-0.873 4.654-0.291 1.6-0.582 3.055-0.873 4.655 0 0.145 0 0.291 0.145 0.291 2.182 0.582 4.364 1.164 6.546 1.745 0.291 0 0.436 0.145 0.727 0.145 0.436 0.145 0.582 0.436 0.582 0.873 0 0.291 0 0.582-0.145 0.873 0 0 0 0.145 0 0.145-0.145 0.145-0.291 0.436-0.582 0.582-1.164 0.582-2.327 1.164-3.491 1.745s-2.473 1.309-3.782 1.745c-1.309 0.436-2.473 1.018-3.782 1.454-1.891 0.582-3.927 1.164-5.818 1.6-1.018 0.291-2.182 0.436-3.2 0.582-0.873 0.145-1.891 0.291-2.764 0.291-0.873 0.145-1.455 0.145-2.182 0.145zM23.855 6.982c0 0 0 0 0 0 0-0.145 0 0 0 0-0.291 0-0.582 0.145-0.727 0.145-1.745 0.291-3.345 0.727-5.091 1.018-2.036 0.436-4.073 0.873-6.109 1.309-1.455 0.291-2.909 0.582-4.364 0.873-0.582 0.145-1.164 0-1.6-0.436-0.291-0.291-0.436-0.291-0.582 0.145 0 0 0 0 0 0.145-0.146 0.436-0.146 0.873 0 1.309 0.146 0.727 0.436 1.455 0.582 2.182 0.291 1.309 0.727 2.618 1.018 3.927 0 0.436 0.146 0.873 0.291 1.309 0 0.145 0.146 0.145 0.291 0.145 0.582-0.291 1.309-0.582 1.891-0.727 0.873-0.291 1.745-0.727 2.764-1.018s1.891-0.582 2.909-0.873c0.873-0.291 1.745-0.582 2.618-0.873 0.291-0.145 0.582-0.145 0.873-0.145 0.436 0.145 0.727 0.145 1.164 0.291 0.727 0.145 1.6 0.436 2.327 0.582 0.145 0 0.145 0 0.291-0.145 0.145-0.436 0.145-0.873 0.291-1.309 0.436-2.182 0.873-4.509 1.309-6.691-0.291-0.291-0.145-0.727-0.145-1.164z"></path>
  </symbol>
  <symbol id="scottish-terrier" viewBox="0 0 32 32">
    <title>Scottish Terrier</title>
    <path d="M31.127 21.236c0-0.436-0.145-0.873-0.145-1.309s0-0.873-0.291-1.309c0-0.145 0-0.145 0-0.291s0-0.291 0-0.436c-0.145-0.873-0.436-1.745-0.582-2.618-0.145-0.727 0-1.455 0-2.182 0.145-0.873 0.291-1.891 0-2.764-0.145-0.582-0.436-1.164-0.873-1.6-0.291-0.436-0.727-0.727-1.164-1.164-0.145-0.145-0.291-0.291-0.291-0.582 0-0.582 0-1.164 0-1.891 0-0.291 0-0.727-0.145-1.018 0 0 0 0 0 0-0.145-0.436-0.436-0.727-0.727-1.164-0.291-0.291-1.018-0.436-1.309 0s-0.436 0.873-0.582 1.455c-0.145 0.873-0.291 1.454-0.582 2.036-0.145 0.145-0.145 0.291-0.291 0.436-0.436 0.291-0.873 0.582-1.454 0.727-0.727 0.145-1.454 0.436-2.182 0.436s-1.309 0.145-2.036 0.291c-0.727 0.291-1.6 0.291-2.327 0.582-0.145 0-0.291 0-0.436 0-0.291-0.291-0.727-0.582-1.018-1.018 0-0.146-0.145-0.146-0.145-0.146-0.145-0.291-0.436-0.436-0.582-0.873-0.145-0.145-0.291-0.436-0.436-0.582-0.291-0.291-0.436-0.727-0.582-1.018s-0.291-0.582-0.436-0.727c-0.145-0.291-0.291-0.582-0.436-0.873-0.291-0.582-0.727-1.018-1.018-1.6-0.291-0.436-0.727-1.018-1.164-1.309-0.291-0.145-0.582-0.291-0.873-0.436-0.436-0.145-0.582 0-0.727 0.436 0 0.145 0 0.291 0 0.436s0 0.145-0.145 0.145-0.146 0-0.146-0.145c-0.291-0.291-0.582-0.582-1.018-0.873-0.146-0.145-0.436-0.291-0.727-0.145s-0.291 0.436-0.291 0.727c0 0.291 0 0.436 0 0.727s0 0.727 0 1.018c0 0.145 0 0.291-0.291 0.436 0 0.291-0.291 0.436-0.436 0.582-0.291 0.291-0.582 0.582-0.873 0.873s-0.582 0.582-0.873 0.873c-0.146 0.291-0.291 0.582-0.146 1.018 0 0 0 0.145 0 0.145 0 0.146 0.146 0.291 0.291 0.436 0.291 0.145 0.436 0.291 0.436 0.582 0 0.145 0 0.145 0.146 0.291s0.146 0.291 0 0.582c0 0.145-0.146 0.145-0.146 0.291-0.291 0.436-0.727 0.873-1.164 1.309s-0.873 0.873-1.164 1.455c-0.145 0.291-0.291 0.436-0.436 0.727-0.291 0.291-0.291 0.582-0.291 0.873 0 0.145 0 0.291-0.145 0.436s-0.145 0.291 0 0.582c0 0.145 0.145 0.145 0 0.291-0.145 0.291 0 0.582 0 0.873 0 0.436 0.291 0.727 0.436 1.018 0.291 0.291 0.582 0.582 0.873 0.873 0.436 0.436 0.873 0.727 1.309 1.018s0.873 0.291 1.309 0.291c0.727 0 1.455 0 2.036-0.436 0.146 0 0.146 0 0.146 0 0 0.436 0 0.873-0.146 1.309s-0.291 0.873-0.436 1.309c0 0.436-0.146 0.873-0.436 1.164 0 0 0 0.145 0 0.145-0.146 0.145 0 0.436-0.146 0.727s-0.146 0.582-0.146 0.873c0.146 0.582-0.146 1.018-0.146 1.6 0 0.727-0.436 1.309-0.727 1.891s-0.291 1.164 0 1.891c0.146 0.291 0.582 0.582 0.873 0.727 0.146 0.145 0.291 0.145 0.436 0 0.873-0.436 1.891-0.873 2.764-1.164 0.145 0 0.291-0.145 0.291-0.291 0.291-0.436 0.291-0.727 0.436-1.164s0.145-1.018 0.291-1.454c0.145-0.582 0.436-1.018 0.582-1.6 0-0.145 0.145-0.436 0.291-0.582 0 0.145 0 0.145 0 0.291-0.291 0.873-0.436 1.745-0.436 2.764s-0.291 1.891-0.582 2.764c-0.145 0.436-0.291 0.873-0.436 1.309 0 0.727 0.145 1.018 0.727 1.164 0.291 0.145 0.582 0.145 0.873 0.291 0.436 0 1.018 0.145 1.455 0 0.145 0 0.436-0.145 0.582-0.145 0.291 0 0.436 0 0.727-0.291 0.436-0.436 0.727-1.018 0.873-1.6 0-0.582 0.145-1.018 0.145-1.6 0-0.291 0-0.727 0.145-1.018 0.145-0.436 0.291-0.873 0.436-1.309s0.291-0.873 0.436-1.309c0.145-0.582 0.436-1.018 0.727-1.454s0.436-1.018 0.436-1.6c0-0.291 0.291-0.582 0.582-0.582 0.873 0 1.745-0.291 2.618-0.582 0.436-0.145 1.018-0.436 1.454-0.727 0 0 0.145-0.145 0.145 0 0 0 0 0.145 0 0.145-0.145 0.436 0 0.873 0.291 1.164 0.291 0.436 0.727 0.582 1.164 0.727 0.145 0 0.291 0 0.436 0 0.436-0.291 0.727-0.436 1.164-0.582 0.582-0.145 0.873-0.727 0.873-1.309s0-1.018 0-1.6c0 0 0-0.145 0-0.145s0.145 0 0.145 0c0.145 0.145 0.291 0.291 0.291 0.436 0.436 0.436 0.727 1.018 0.582 1.745s-0.291 1.309-0.145 2.036c0 0.291 0.145 0.436 0.291 0.582 0.291 0.145 0.582 0.291 0.873 0.291 0.582 0.145 1.018 0.145 1.6 0.145 0.291 0 0.582-0.145 0.727-0.291 1.018-0.436 1.164-1.164 1.164-1.891z"></path>
  </symbol>
  <symbol id="thimble" viewBox="0 0 32 32">
    <title>Thimble</title>
    <path d="M26.473 27.055c0-0.436-0.145-0.873-0.145-1.164s0-0.727-0.145-1.018c-0.145-0.145-0.145-0.436-0.145-0.582-0.145-1.018-0.145-2.036-0.291-2.909s-0.145-1.745-0.291-2.618c0-0.436-0.145-0.727-0.145-1.164 0-0.727-0.145-1.454-0.291-2.327-0.145-0.727-0.145-1.6-0.291-2.327s-0.145-1.455-0.145-2.036c0-0.582-0.145-1.018-0.145-1.455 0-0.582-0.145-1.164-0.145-1.745-0.145-1.018-0.145-2.036-0.291-3.055 0-0.291 0-0.582-0.145-0.873-0.291-0.582-0.727-1.018-1.164-1.454-0.727-0.582-1.6-1.018-2.473-1.309-1.309-0.727-2.764-1.018-4.218-1.018-0.291 0-0.582 0-0.873 0-0.582 0-1.018 0.145-1.6 0.145-1.018 0.291-2.036 0.727-2.909 1.309-0.727 0.291-1.309 0.582-1.745 1.164-0.436 0.436-0.727 0.873-0.727 1.454 0 0.436-0.146 1.018-0.146 1.454-0.146 0.727-0.146 1.455-0.291 2.182 0 0.873-0.146 1.745-0.291 2.618 0 0.873-0.146 1.891-0.291 2.909-0.146 1.164-0.291 2.327-0.436 3.491-0.146 1.018-0.146 2.182-0.291 3.2-0.146 0.873-0.146 1.891-0.291 2.764 0 0.582-0.146 1.018-0.146 1.6 0 0.145 0 0.291-0.146 0.291 0 0.291 0 0.582-0.146 0.727 0 0.582-0.146 1.309-0.146 1.891s0 1.018 0.291 1.454c0.291 0.582 0.873 1.018 1.454 1.454 0.727 0.436 1.6 0.873 2.618 1.164 1.164 0.291 2.327 0.582 3.491 0.727 0.873 0 1.745 0 2.618 0s1.745 0 2.473-0.145c1.454-0.145 3.055-0.436 4.364-1.018 0.873-0.291 1.745-0.727 2.473-1.309 0.873-0.727 1.309-1.454 1.164-2.473z"></path>
  </symbol>
  <symbol id="top-hat" viewBox="0 0 32 32">
    <title>Top Hat</title>
    <path d="M32 18.618c-0.145-0.291-0.291-0.436-0.582-0.582-0.291-0.291-0.727-0.436-1.164-0.582-1.164-0.436-2.473-0.873-3.636-1.164-0.145 0-0.291-0.145-0.291-0.291 0-0.582 0-1.018 0.145-1.6 0.145-0.873 0.145-1.6 0.145-2.473 0-0.582 0-1.018 0.145-1.6 0-0.873 0.145-1.6 0.145-2.473 0-0.436 0-0.873 0.145-1.164 0-0.291-0.145-0.582-0.291-0.873-0.436-0.291-1.018-0.436-1.454-0.582-1.6-0.436-3.2-0.582-4.8-0.582-1.309 0-2.473-0.145-3.636 0-0.582 0-1.164 0-1.6 0-0.873 0-1.6 0.146-2.473 0.291-1.455 0.291-2.618 0.436-3.782 0.727-0.873 0-1.745 0.145-2.473 0.436-0.436 0.145-0.727 0.291-1.018 0.436-0.436 0.291-0.582 0.582-0.582 1.018 0 0.582 0.146 1.164 0.146 1.891 0 1.018 0.146 2.036 0.146 3.055 0 0.727 0 1.454 0.146 2.036 0 0.145 0 0.145-0.146 0.291-1.455 0.436-2.618 1.164-3.636 2.327-0.291 0.436-0.727 0.727-0.873 1.164-0.436 0.727-0.727 1.454-0.727 2.473 0 0.291 0 0.436 0 0.727 0 0.582 0.145 1.164 0.436 1.6 0.582 0.873 1.309 1.6 2.327 2.036 0.436 0.291 0.873 0.436 1.309 0.582 0.873 0.436 1.745 0.727 2.618 1.018 1.455 0.436 3.055 0.436 4.655 0.436 0.873 0 1.891-0.145 2.764-0.145 1.455-0.145 2.909-0.436 4.218-0.873 1.745-0.582 3.491-1.164 5.091-2.036 1.454-0.727 2.764-1.454 4.218-2.036 0.727-0.291 1.309-0.582 2.036-0.873 0.436-0.145 0.873-0.436 1.309-0.582s0.727-0.436 0.873-1.018c0-0.145 0-0.436 0.145-0.582 0-0.145 0-0.291 0-0.436z"></path>
  </symbol>
  <symbol id="wheelbarrow" viewBox="0 0 32 32">
    <title>Wheelbarrow</title>
    <path d="M5.673 15.418c0-0.727 0-1.309 0-2.036 0-0.873 0-1.891-0.146-2.764 0-0.436 0-1.018 0-1.454 0-0.145 0-0.291 0.146-0.291 1.164-0.145 2.327-0.436 3.491-0.582 1.018-0.145 2.036-0.291 2.909-0.436 0.727-0.145 1.309-0.291 2.036-0.291 1.164 0.145 2.182 0.291 3.055 1.018 0.291 0.145 0.582 0.436 0.727 0.727 0.145 0.145 0.145 0.145 0.291 0.145 0.582 0 1.164-0.145 1.745-0.145 1.164-0.145 2.327 0 3.491 0.145 0.727 0.145 1.6 0.436 2.327 0.873s1.309 1.018 1.6 1.745c0.291 0.436 0.145 0.291 0.582 0.145 1.018-0.291 1.891-0.582 2.909-0.873 0.291-0.145 0.582 0 0.727 0 0.291 0.291 0.436 0.436 0.436 0.582 0 0.291 0 0.436 0 0.727 0 0.145-0.145 0.291-0.291 0.291-0.873 0.291-1.891 0.582-2.764 1.018-0.582 0.145-1.164 0.436-1.745 0.582-0.145 0-0.145 0.145-0.291 0.291-0.436 1.018-0.873 1.891-1.309 2.909-0.145 0.291-0.145 0.436-0.436 0.582-0.145 0-0.291 0.145-0.436 0-0.436-0.145-0.873-0.436-1.454-0.727s-1.018-0.727-1.6-1.018c-0.145 0-0.145-0.145-0.291 0-1.745 0.582-3.491 1.164-5.091 1.745-0.873 0.291-1.6 0.582-2.473 0.873-0.582 0.145-1.018 0.291-1.6 0.582-0.436 0.145-1.018 0.145-1.455 0.291-0.582 0-1.164 0.145-1.745 0.145s-1.164 0.145-1.745 0.145c0 0 0 0 0 0-0.436 0-0.436 0-0.436 0.436s-0.291 1.018-0.436 1.454c-0.291 0.727-0.727 1.309-1.309 1.745-0.727 0.436-1.455 0.727-2.327 0.582-0.291 0-0.582-0.291-0.873-0.436-0.436-0.291-0.873-0.582-1.164-1.018-0.582-0.873-0.727-1.454-0.727-2.182s0.291-1.309 0.582-1.891c0.436-0.727 1.018-1.454 1.745-1.891 0.873-0.436 1.745-0.582 2.618-0.145 0.291 0.145 0.291 0.145 0.291-0.145 0.146-0.291 0.146-0.436 0.291-0.727 0.146-0.145 0.146-0.436 0.146-0.727z"></path>
  </symbol>
</svg>
