<svg version="1.1" xmlns="http://www.w3.org/2000/svg" xmlns:xlink="http://www.w3.org/1999/xlink">
  <defs>
    <symbol id="close" viewBox="0 0 50 50">
      <title>close</title>
      <path d="M25,19.3431458 L14.8284271,9.17157288 C13.26633,7.60947571 10.73367,7.60947571 9.17157288,9.17157288 C7.60947571,10.73367 7.60947571,13.26633 9.17157288,14.8284271 L19.3431458,25 L9.17157288,35.1715729 C7.60947571,36.73367 7.60947571,39.26633 9.17157288,40.8284271 C10.73367,42.3905243 13.26633,42.3905243 14.8284271,40.8284271 L25,30.6568542 L35.1715729,40.8284271 C36.73367,42.3905243 39.26633,42.3905243 40.8284271,40.8284271 C42.3905243,39.26633 42.3905243,36.73367 40.8284271,35.1715729 L30.6568542,25 L40.8284271,14.8284271 C42.3905243,13.26633 42.3905243,10.73367 40.8284271,9.17157288 C39.26633,7.60947571 36.73367,7.60947571 35.1715729,9.17157288 L25,19.3431458 Z"></path>
    </symbol>

    <symbol id="check" viewBox="0 0 50 50">
      <title>check</title>
      <path d="M20,39 C21.0236893,39 22.0473785,38.6094757 22.8284271,37.8284271 L42.8284271,17.8284271 C44.3905243,16.26633 44.3905243,13.73367 42.8284271,12.1715729 C41.26633,10.6094757 38.73367,10.6094757 37.1715729,12.1715729 L20,29.3431458 L12.8284271,22.1715729 C11.26633,20.6094757 8.73367004,20.6094757 7.17157288,22.1715729 C5.60947571,23.73367 5.60947571,26.26633 7.17157288,27.8284271 L17.1715729,37.8284271 C17.9526215,38.6094757 18.9763107,39 20,39 Z"></path>
    </symbol>

    <symbol id="larr" viewBox="0 0 50 50">
      <title>left-arrow</title>
      <path d="M14,25.0384048 C14,24.0147155 14.3905243,22.9910263 15.1715729,22.2099777 L28.2099777,9.17157288 C29.7720749,7.60947571 32.3047348,7.60947571 33.8668319,9.17157288 C35.4289291,10.73367 35.4289291,13.26633 33.8668319,14.8284271 L23.6568542,25.0384048 L33.8639427,35.2454932 C35.4260398,36.8075904 35.4260398,39.3402503 33.8639427,40.9023475 C32.3018455,42.4644446 29.7691856,42.4644446 28.2070884,40.9023475 L15.1715729,27.8668319 C14.3905243,27.0857834 14,26.0620941 14,25.0384048 Z"></path>
    </symbol>

    <symbol id="rarr" viewBox="0 0 50 50">
      <title>right-arrow</title>
      <path d="M14,25.0384048 C14,24.0147155 14.3905243,22.9910263 15.1715729,22.2099777 L28.2099777,9.17157288 C29.7720749,7.60947571 32.3047348,7.60947571 33.8668319,9.17157288 C35.4289291,10.73367 35.4289291,13.26633 33.8668319,14.8284271 L23.6568542,25.0384048 L33.8639427,35.2454932 C35.4260398,36.8075904 35.4260398,39.3402503 33.8639427,40.9023475 C32.3018455,42.4644446 29.7691856,42.4644446 28.2070884,40.9023475 L15.1715729,27.8668319 C14.3905243,27.0857834 14,26.0620941 14,25.0384048 Z"></path>
    </symbol>
  </defs>
</svg>
