<svg version="1.1" xmlns="http://www.w3.org/2000/svg" xmlns:xlink="http://www.w3.org/1999/xlink">
  <defs>
    <symbol id="close" viewBox="0 0 50 50">
      <title>close</title>
      <path d="M25,19.3431458 L14.8284271,9.17157288 C13.26633,7.60947571 10.73367,7.60947571 9.17157288,9.17157288 C7.60947571,10.73367 7.60947571,13.26633 9.17157288,14.8284271 L19.3431458,25 L9.17157288,35.1715729 C7.60947571,36.73367 7.60947571,39.26633 9.17157288,40.8284271 C10.73367,42.3905243 13.26633,42.3905243 14.8284271,40.8284271 L25,30.6568542 L35.1715729,40.8284271 C36.73367,42.3905243 39.26633,42.3905243 40.8284271,40.8284271 C42.3905243,39.26633 42.3905243,36.73367 40.8284271,35.1715729 L30.6568542,25 L40.8284271,14.8284271 C42.3905243,13.26633 42.3905243,10.73367 40.8284271,9.17157288 C39.26633,7.60947571 36.73367,7.60947571 35.1715729,9.17157288 L25,19.3431458 Z"></path>
    </symbol>

    <symbol id="check" viewBox="0 0 50 50">
      <title>check</title>
      <path d="M20,39 C21.0236893,39 22.0473785,38.6094757 22.8284271,37.8284271 L42.8284271,17.8284271 C44.3905243,16.26633 44.3905243,13.73367 42.8284271,12.1715729 C41.26633,10.6094757 38.73367,10.6094757 37.1715729,12.1715729 L20,29.3431458 L12.8284271,22.1715729 C11.26633,20.6094757 8.73367004,20.6094757 7.17157288,22.1715729 C5.60947571,23.73367 5.60947571,26.26633 7.17157288,27.8284271 L17.1715729,37.8284271 C17.9526215,38.6094757 18.9763107,39 20,39 Z"></path>
    </symbol>

    <symbol id="larr" viewBox="0 0 50 50">
      <title>left-arrow</title>
      <path d="M14,25.0384048 C14,24.0147155 14.3905243,22.9910263 15.1715729,22.2099777 L28.2099777,9.17157288 C29.7720749,7.60947571 32.3047348,7.60947571 33.8668319,9.17157288 C35.4289291,10.73367 35.4289291,13.26633 33.8668319,14.8284271 L23.6568542,25.0384048 L33.8639427,35.2454932 C35.4260398,36.8075904 35.4260398,39.3402503 33.8639427,40.9023475 C32.3018455,42.4644446 29.7691856,42.4644446 28.2070884,40.9023475 L15.1715729,27.8668319 C14.3905243,27.0857834 14,26.0620941 14,25.0384048 Z"></path>
    </symbol>

    <symbol id="rarr" viewBox="0 0 50 50">
      <title>right-arrow</title>
      <path d="M14,25.0384048 C14,24.0147155 14.3905243,22.9910263 15.1715729,22.2099777 L28.2099777,9.17157288 C29.7720749,7.60947571 32.3047348,7.60947571 33.8668319,9.17157288 C35.4289291,10.73367 35.4289291,13.26633 33.8668319,14.8284271 L23.6568542,25.0384048 L33.8639427,35.2454932 C35.4260398,36.8075904 35.4260398,39.3402503 33.8639427,40.9023475 C32.3018455,42.4644446 29.7691856,42.4644446 28.2070884,40.9023475 L15.1715729,27.8668319 C14.3905243,27.0857834 14,26.0620941 14,25.0384048 Z"></path>
    </symbol>

    <symbol id="transfer" viewBox="0 0 50 50">
      <title>transfer</title>
      <path d="M43.0398931,31.5585367 C44.2075731,32.2521642 44.9928371,33.5234353 44.9999533,34.9804651 C45.0001294,35.0165161 44.999828,35.0524581 44.9990551,35.088285 C45.0218668,36.1408458 44.6316575,37.2006946 43.8284271,38.003925 L37.8284271,44.003925 C35.3085677,46.5237844 31,44.7391172 31,41.1754978 L31,39.0488892 L13.019537,39.1367066 C10.8104243,39.147496 9.01083814,37.3654029 9.00004873,35.1562902 C8.98925933,32.9471776 10.7713524,31.1475914 12.9804651,31.136802 L31,31.0487938 L31,29.1754978 C31,25.6118784 35.3085677,23.8272113 37.8284271,26.3470707 L43.0398931,31.5585367 Z M20,19.4279221 L20,21.2911688 C20,24.8547882 15.6914323,26.6394554 13.1715729,24.1195959 L7.85976105,18.8077841 C6.74192059,18.0984487 6,16.8498278 6,15.4279221 C6,15.4050036 6.00019275,15.3821301 6.00057671,15.3593032 C5.98286331,14.3130237 6.37319537,13.2611192 7.17157288,12.4627417 L13.1715729,6.4627417 C15.6914323,3.94288225 20,5.72754942 20,9.29116882 L20,11.4279221 L38,11.4279221 C40.209139,11.4279221 42,13.2187831 42,15.4279221 C42,17.6370611 40.209139,19.4279221 38,19.4279221 L20,19.4279221 Z"></path>
    </symbol>

    <symbol id="dice" viewBox="0 0 50 50">
      <title>dice</title>
      <path d="M27.7360032,10.1340534 L28.0459984,10.2542347 L38.2844988,14.4700878 C40.4551842,15.3638994 41.8978789,17.4372146 41.994794,19.7675375 L42,20.0181563 L42,31.4615778 C42,32.9405966 41.1846583,34.2926255 39.8911861,34.9862933 L39.7031881,35.0808526 L29.2773911,39.9871101 C28.8778015,40.1751522 28.441624,40.272654 28,40.272654 C26.4023191,40.272654 25.0963391,39.023734 25.0050927,37.4489267 L25,37.272654 L25,24.8300603 C25,23.2047931 24.0177931,21.7488249 22.528388,21.1335319 L22.3312805,21.058099 L12.9362879,17.7422192 C12.3997218,17.552843 11.9692204,17.1438845 11.7525719,16.6177382 C11.3520342,15.6450037 11.7747296,14.5384381 12.6981935,14.0719572 L12.8404285,14.0068824 L21.9540016,10.2542347 C23.802503,9.49308702 25.8649782,9.45302661 27.7360032,10.1340534 Z M20,32 C21.1045695,32 22,33.1192881 22,34.5 C22,35.8807119 21.1045695,37 20,37 C18.8954305,37 18,35.8807119 18,34.5 C18,33.1192881 18.8954305,32 20,32 Z M31,30 C29.8954305,30 29,31.1192881 29,32.5 C29,33.8807119 29.8954305,35 31,35 C32.1045695,35 33,33.8807119 33,32.5 C33,31.1192881 32.1045695,30 31,30 Z M12,29 C13.1045695,29 14,30.1192881 14,31.5 C14,32.8807119 13.1045695,34 12,34 C10.8954305,34 10,32.8807119 10,31.5 C10,30.1192881 10.8954305,29 12,29 Z M20,23 C21.1045695,23 22,24.1192881 22,25.5 C22,26.8807119 21.1045695,28 20,28 C18.8954305,28 18,26.8807119 18,25.5 C18,24.1192881 18.8954305,23 20,23 Z M37,21 C35.8954305,21 35,22.1192881 35,23.5 C35,24.8807119 35.8954305,26 37,26 C38.1045695,26 39,24.8807119 39,23.5 C39,22.1192881 38.1045695,21 37,21 Z M12,20 C13.1045695,20 14,21.1192881 14,22.5 C14,23.8807119 13.1045695,25 12,25 C10.8954305,25 10,23.8807119 10,22.5 C10,21.1192881 10.8954305,20 12,20 Z M25,13 C23.3431458,13 22,13.8954305 22,15 C22,16.1045695 23.3431458,17 25,17 C26.6568542,17 28,16.1045695 28,15 C28,13.8954305 26.6568542,13 25,13 Z"></path>
    </symbol>

    <symbol id="refresh" viewBox="0 0 50 50">
      <title>refresh</title>
      <path d="M39.5060852,25.6273209 C41.7152242,25.6273209 43.5060852,27.4181819 43.5060852,29.6273209 L43.5060852,38.1126023 C43.5060852,41.6762217 39.1975175,43.4608888 36.6776581,40.9410294 L35.3731788,39.6371227 C32.1474746,42.4196975 28.0087958,44.0000602 23.6235951,44.0000602 C18.3085311,44.0000602 13.3616506,41.6777197 9.96591642,37.7251073 C8.52632724,36.0494349 8.71771052,33.5240163 10.393383,32.0844272 C12.0131996,30.6928243 14.4270568,30.8252746 15.8865564,32.3492795 L16.0340631,32.5118937 L16.2477023,32.7527553 C18.1289471,34.8072443 20.7752894,36.0000602 23.6235951,36.0000602 C25.8588587,36.0000602 27.9704323,35.2661832 29.6875797,33.9533651 L28.1923767,32.455748 C25.6725172,29.9358886 27.4571844,25.6273209 31.0208038,25.6273209 L39.5060852,25.6273209 Z M26.7691183,6.74863099 C32.0841824,6.74863099 37.0310628,9.07097146 40.426797,13.0235839 C41.8663862,14.6992563 41.6750029,17.2246748 39.9993305,18.664264 C38.3795138,20.0558669 35.9656566,19.9234166 34.506157,18.3994117 L34.3586503,18.2367975 L34.1450111,17.9959359 C32.2637663,15.9414469 29.617424,14.748631 26.7691183,14.748631 C24.5329861,14.748631 22.4206401,15.4830785 20.7031322,16.7968567 L22.2004072,18.2928932 C24.7202666,20.8127527 22.9355995,25.1213203 19.37198,25.1213203 L10.8866987,25.1213203 C8.67755968,25.1213203 6.88669867,23.3304593 6.88669867,21.1213203 L6.88669867,12.636039 C6.88669867,9.07241957 11.1952664,7.2877524 13.7151258,9.80761184 L15.0195346,11.1115685 C18.2452388,8.32899366 22.3839177,6.74863099 26.7691183,6.74863099 Z"></path>
    </symbol>
  </defs>
</svg>
