<svg version="1.1" xmlns="http://www.w3.org/2000/svg" xmlns:xlink="http://www.w3.org/1999/xlink">
  <defs>
    <symbol id="close" viewBox="0 0 50 50">
      <title>close</title>
      <path d="M25,19.3431458 L14.8284271,9.17157288 C13.26633,7.60947571 10.73367,7.60947571 9.17157288,9.17157288 C7.60947571,10.73367 7.60947571,13.26633 9.17157288,14.8284271 L19.3431458,25 L9.17157288,35.1715729 C7.60947571,36.73367 7.60947571,39.26633 9.17157288,40.8284271 C10.73367,42.3905243 13.26633,42.3905243 14.8284271,40.8284271 L25,30.6568542 L35.1715729,40.8284271 C36.73367,42.3905243 39.26633,42.3905243 40.8284271,40.8284271 C42.3905243,39.26633 42.3905243,36.73367 40.8284271,35.1715729 L30.6568542,25 L40.8284271,14.8284271 C42.3905243,13.26633 42.3905243,10.73367 40.8284271,9.17157288 C39.26633,7.60947571 36.73367,7.60947571 35.1715729,9.17157288 L25,19.3431458 Z"></path>
    </symbol>

    <symbol id="check" viewBox="0 0 50 50">
      <title>check</title>
      <path d="M20,39 C21.0236893,39 22.0473785,38.6094757 22.8284271,37.8284271 L42.8284271,17.8284271 C44.3905243,16.26633 44.3905243,13.73367 42.8284271,12.1715729 C41.26633,10.6094757 38.73367,10.6094757 37.1715729,12.1715729 L20,29.3431458 L12.8284271,22.1715729 C11.26633,20.6094757 8.73367004,20.6094757 7.17157288,22.1715729 C5.60947571,23.73367 5.60947571,26.26633 7.17157288,27.8284271 L17.1715729,37.8284271 C17.9526215,38.6094757 18.9763107,39 20,39 Z"></path>
    </symbol>

    <symbol id="larr" viewBox="0 0 50 50">
      <title>left-arrow</title>
      <path d="M14,25.0384048 C14,24.0147155 14.3905243,22.9910263 15.1715729,22.2099777 L28.2099777,9.17157288 C29.7720749,7.60947571 32.3047348,7.60947571 33.8668319,9.17157288 C35.4289291,10.73367 35.4289291,13.26633 33.8668319,14.8284271 L23.6568542,25.0384048 L33.8639427,35.2454932 C35.4260398,36.8075904 35.4260398,39.3402503 33.8639427,40.9023475 C32.3018455,42.4644446 29.7691856,42.4644446 28.2070884,40.9023475 L15.1715729,27.8668319 C14.3905243,27.0857834 14,26.0620941 14,25.0384048 Z"></path>
    </symbol>

    <symbol id="rarr" viewBox="0 0 50 50">
      <title>right-arrow</title>
      <path d="M14,25.0384048 C14,24.0147155 14.3905243,22.9910263 15.1715729,22.2099777 L28.2099777,9.17157288 C29.7720749,7.60947571 32.3047348,7.60947571 33.8668319,9.17157288 C35.4289291,10.73367 35.4289291,13.26633 33.8668319,14.8284271 L23.6568542,25.0384048 L33.8639427,35.2454932 C35.4260398,36.8075904 35.4260398,39.3402503 33.8639427,40.9023475 C32.3018455,42.4644446 29.7691856,42.4644446 28.2070884,40.9023475 L15.1715729,27.8668319 C14.3905243,27.0857834 14,26.0620941 14,25.0384048 Z"></path>
    </symbol>

    <symbol id="transfer" viewBox="0 0 50 50">
      <title>transfer</title>
      <path d="M43.0398931,31.5585367 C44.2075731,32.2521642 44.9928371,33.5234353 44.9999533,34.9804651 C45.0001294,35.0165161 44.999828,35.0524581 44.9990551,35.088285 C45.0218668,36.1408458 44.6316575,37.2006946 43.8284271,38.003925 L37.8284271,44.003925 C35.3085677,46.5237844 31,44.7391172 31,41.1754978 L31,39.0488892 L13.019537,39.1367066 C10.8104243,39.147496 9.01083814,37.3654029 9.00004873,35.1562902 C8.98925933,32.9471776 10.7713524,31.1475914 12.9804651,31.136802 L31,31.0487938 L31,29.1754978 C31,25.6118784 35.3085677,23.8272113 37.8284271,26.3470707 L43.0398931,31.5585367 Z M20,19.4279221 L20,21.2911688 C20,24.8547882 15.6914323,26.6394554 13.1715729,24.1195959 L7.85976105,18.8077841 C6.74192059,18.0984487 6,16.8498278 6,15.4279221 C6,15.4050036 6.00019275,15.3821301 6.00057671,15.3593032 C5.98286331,14.3130237 6.37319537,13.2611192 7.17157288,12.4627417 L13.1715729,6.4627417 C15.6914323,3.94288225 20,5.72754942 20,9.29116882 L20,11.4279221 L38,11.4279221 C40.209139,11.4279221 42,13.2187831 42,15.4279221 C42,17.6370611 40.209139,19.4279221 38,19.4279221 L20,19.4279221 Z"></path>
    </symbol>
  </defs>
</svg>
