<svg style="position: absolute; width: 0; height: 0; overflow: hidden;" version="1.1" xmlns="http://www.w3.org/2000/svg" xmlns:xlink="http://www.w3.org/1999/xlink">
  <defs>
    <symbol id="thimble" viewBox="0 0 32 32">
      <title>thimble</title>
      <path d="M26.464 27.040c0-0.416-0.128-0.864-0.128-1.152s0-0.736-0.16-1.024c-0.128-0.128-0.128-0.416-0.128-0.576-0.16-1.024-0.16-2.048-0.288-2.912s-0.16-1.728-0.288-2.624c0-0.416-0.16-0.704-0.16-1.152 0-0.736-0.16-1.44-0.288-2.336-0.16-0.704-0.16-1.6-0.288-2.304s-0.16-1.472-0.16-2.048c0-0.576-0.128-1.024-0.128-1.472 0-0.576-0.16-1.152-0.16-1.728-0.128-1.024-0.128-2.048-0.288-3.072 0-0.288 0-0.576-0.128-0.864-0.288-0.576-0.736-1.024-1.184-1.44-0.704-0.576-1.6-1.024-2.464-1.312-1.312-0.736-2.752-1.024-4.224-1.024-0.288 0-0.576 0-0.864 0-0.576 0-1.024 0.16-1.6 0.16-1.024 0.288-2.048 0.704-2.912 1.28-0.736 0.32-1.312 0.608-1.76 1.184-0.416 0.416-0.704 0.864-0.704 1.44 0 0.448-0.16 1.024-0.16 1.472-0.128 0.704-0.128 1.44-0.288 2.176 0 0.864-0.16 1.728-0.288 2.624 0 0.864-0.16 1.888-0.288 2.912-0.16 1.152-0.288 2.304-0.448 3.488-0.128 0.992-0.128 2.176-0.288 3.2-0.128 0.864-0.128 1.888-0.288 2.752 0 0.576-0.16 1.024-0.16 1.6 0 0.16 0 0.288-0.128 0.288 0 0.288 0 0.576-0.16 0.736 0 0.576-0.128 1.312-0.128 1.888s0 1.024 0.288 1.44c0.288 0.608 0.864 1.024 1.44 1.472 0.736 0.448 1.6 0.864 2.624 1.152 1.184 0.288 2.336 0.576 3.488 0.736 0.896 0 1.76 0 2.624 0s1.76 0 2.464-0.16c1.472-0.128 3.072-0.416 4.384-0.992 0.864-0.288 1.728-0.736 2.464-1.312 0.864-0.736 1.312-1.472 1.152-2.496z"></path>
    </symbol>

    <symbol id="top-hat" viewBox="0 0 32 32">
      <title>top-hat</title>
      <path d="M32 18.624c-0.128-0.288-0.288-0.448-0.576-0.576-0.288-0.32-0.736-0.448-1.184-0.608-1.152-0.416-2.464-0.864-3.616-1.152-0.16 0-0.288-0.16-0.288-0.288 0-0.576 0-1.024 0.128-1.6 0.16-0.864 0.16-1.6 0.16-2.464 0-0.608 0-1.024 0.128-1.6 0-0.896 0.16-1.6 0.16-2.496 0-0.416 0-0.864 0.128-1.152 0-0.288-0.128-0.576-0.288-0.864-0.416-0.288-0.992-0.448-1.44-0.576-1.6-0.448-3.2-0.608-4.8-0.608-1.312 0-2.464-0.128-3.648 0-0.576 0-1.152 0-1.6 0-0.864 0-1.6 0.16-2.464 0.288-1.44 0.32-2.624 0.448-3.776 0.736-0.864 0-1.76 0.16-2.464 0.448-0.448 0.128-0.736 0.288-1.024 0.416-0.448 0.288-0.576 0.608-0.576 1.024 0 0.576 0.128 1.184 0.128 1.888 0 1.024 0.16 2.048 0.16 3.072 0 0.704 0 1.44 0.128 2.016 0 0.16 0 0.16-0.128 0.288-1.472 0.448-2.624 1.184-3.648 2.336-0.288 0.448-0.736 0.736-0.864 1.184-0.448 0.704-0.736 1.44-0.736 2.464 0 0.288 0 0.416 0 0.736 0 0.576 0.16 1.152 0.448 1.6 0.576 0.864 1.312 1.6 2.304 2.016 0.448 0.288 0.896 0.448 1.312 0.576 0.896 0.448 1.76 0.736 2.624 1.024 1.472 0.448 3.072 0.448 4.672 0.448 0.864 0 1.888-0.16 2.752-0.16 1.44-0.128 2.912-0.416 4.224-0.864 1.728-0.576 3.488-1.152 5.088-2.048 1.44-0.704 2.752-1.44 4.224-2.016 0.704-0.288 1.312-0.576 2.016-0.896 0.448-0.128 0.896-0.416 1.312-0.576s0.736-0.416 0.864-1.024c0-0.128 0-0.416 0.16-0.576 0-0.128 0-0.288 0-0.416z"></path>
    </symbol>

    <symbol id="wheelbarrow" viewBox="0 0 32 32">
      <title>wheelbarrow</title>
      <path d="M5.664 15.424c0-0.736 0-1.312 0-2.048 0-0.864 0-1.888-0.128-2.752 0-0.448 0-1.024 0-1.472 0-0.128 0-0.288 0.128-0.288 1.184-0.128 2.336-0.416 3.488-0.576 1.024-0.128 2.048-0.288 2.912-0.448 0.736-0.128 1.312-0.288 2.048-0.288 1.152 0.16 2.176 0.288 3.040 1.024 0.32 0.16 0.608 0.448 0.736 0.736 0.16 0.128 0.16 0.128 0.288 0.128 0.576 0 1.184-0.128 1.76-0.128 1.152-0.16 2.304 0 3.488 0.128 0.736 0.16 1.6 0.448 2.336 0.896s1.28 0.992 1.6 1.728c0.288 0.448 0.128 0.288 0.576 0.16 1.024-0.288 1.888-0.576 2.912-0.896 0.288-0.128 0.576 0 0.704 0 0.288 0.32 0.448 0.448 0.448 0.608 0 0.288 0 0.416 0 0.704 0 0.16-0.16 0.288-0.288 0.288-0.864 0.32-1.888 0.608-2.752 1.024-0.608 0.16-1.184 0.448-1.76 0.576-0.16 0-0.16 0.16-0.288 0.32-0.448 0.992-0.864 1.888-1.312 2.88-0.16 0.32-0.16 0.448-0.448 0.608-0.128 0-0.288 0.128-0.416 0-0.448-0.16-0.896-0.448-1.472-0.736s-0.992-0.736-1.6-1.024c-0.128 0-0.128-0.128-0.288 0-1.728 0.576-3.488 1.152-5.088 1.76-0.864 0.288-1.6 0.576-2.464 0.864-0.576 0.128-1.024 0.288-1.6 0.576-0.448 0.16-1.024 0.16-1.472 0.288-0.576 0-1.152 0.16-1.728 0.16s-1.184 0.128-1.76 0.128c0 0 0 0 0 0-0.416 0-0.416 0-0.416 0.448s-0.288 1.024-0.448 1.44c-0.288 0.736-0.736 1.312-1.312 1.76-0.736 0.416-1.44 0.736-2.336 0.576-0.288 0-0.576-0.288-0.864-0.448-0.416-0.288-0.864-0.576-1.152-0.992-0.576-0.896-0.736-1.472-0.736-2.208s0.288-1.28 0.576-1.888c0.448-0.704 1.024-1.44 1.76-1.888 0.864-0.416 1.728-0.576 2.624-0.128 0.288 0.128 0.288 0.128 0.288-0.16 0.128-0.288 0.128-0.416 0.288-0.736 0.128-0.128 0.128-0.416 0.128-0.704z"></path>
    </symbol>

    <symbol id="automobile" viewBox="0 0 32 32">
      <title>automobile</title>
      <path d="M31.872 13.824c-0.16-0.736-0.608-1.312-1.472-1.472-0.128 0-0.128-0.128-0.288-0.288 0-0.416-0.16-0.864-0.16-1.312-0.128-0.864-0.416-1.888-0.864-2.752-0.576-1.312-1.44-2.336-2.624-3.2-0.704-0.576-1.6-1.024-2.592-0.864-0.896 0-1.6 0.576-2.048 1.312-0.16 0.288-0.16 0.416-0.448 0.576-0.128 0.128-0.416 0.288-0.576 0.576-0.128 0.128-0.128 0.128-0.288 0-0.736-0.448-1.44-0.736-2.336-0.736-0.704 0-1.44 0.288-1.888 0.864s-0.864 1.184-1.312 1.76c0 0.448 0 0.448-0.128 0.448-0.288 0.128-0.576 0.288-1.024 0.416-0.736 0.448-1.472 0.736-2.176 1.024s-1.312 0.576-2.048 0.864c-0.736 0.288-1.312 0.608-2.016 0.896s-1.472 0.576-2.208 0.864c-1.152 0.448-2.176 0.864-3.2 1.728-0.288 0.32-0.576 0.608-0.704 1.024-0.16 0.288-0.16 0.736-0.16 1.024 0 0.16 0 0.288-0.128 0.448-0.608 0.864-0.896 1.728-1.024 2.624s0 1.728 0.288 2.464c0.288 0.576 0.736 1.152 1.312 1.44s1.152 0.576 1.728 0.896c0.736 0.288 1.6 0.128 2.336-0.16 0.448-0.16 0.736-0.288 1.152-0.288 0.16 0 0.16 0 0.288 0s0.32 0 0.32 0.128c0 0.448 0.128 0.736 0.288 1.184 0.288 0.576 0.576 1.152 1.152 1.44 0.736 0.448 1.44 0.736 2.176 1.024 0.16 0 0.288 0.16 0.448 0.16 0.864 0.128 1.6-0.16 2.336-0.608 0.992-0.704 1.728-1.6 2.304-2.752 0.448-0.864 0.576-1.76 0.736-2.752 0-0.16 0-0.16 0.16-0.288 0.416-0.16 0.864-0.32 1.28-0.608 1.92-0.704 3.648-1.44 5.536-2.176 0.736-0.288 1.312-0.576 2.048-0.864 0.128 0 0.128 0 0.288 0.128 0 0.16 0 0.32 0.128 0.448 0.288 0.576 0.608 1.024 1.184 1.152 0.416 0.16 0.864 0.16 1.312 0.448 0.576 0.16 0.992 0 1.44-0.288 0.576-0.448 0.864-1.024 1.312-1.6 0.448-1.024 0.736-2.048 0.736-3.072-0.288-0.576-0.448-0.992-0.576-1.28z"></path>
    </symbol>

    <symbol id="battleship" viewBox="0 0 32 32">
      <title>battleship</title>
      <path d="M24.16 8.576c0.128-0.128 0.288-0.416 0.416-0.576 0.448-0.288 0.736-0.448 1.312-0.288 0.448 0.128 0.736 0.416 0.864 1.024 0.16 0.416 0 0.864-0.288 1.152-0.128 0-0.288 0.288-0.128 0.448 0 0.288 0 0.576 0 0.864 0 0.736 0 1.44-0.16 2.176 0 0 0 0.16 0 0.16 0 0.128 0 0.128 0.16 0.128 0.288 0 0.416 0.16 0.704 0.288 0.16 0.16 0.16 0.288 0.16 0.448s0 0.128 0.16 0c0 0 0.128-0.16 0.128-0.16 0.288-0.128 0.448-0.128 0.736 0.16 0.128 0.128 0.128 0.448-0.16 0.736-0.288 0.128-0.416 0.288-0.704 0.576 0 0-0.16 0.128-0.16 0.128s0 0 0 0 0 0 0.16 0c0 0 0 0 0 0 0.416-0.128 0.864-0.128 1.28-0.128 0.32 0 0.32 0 0.32 0.288 0.128 0.576 0.128 1.152 0.128 1.728 0 0.448 0.16 0.896 0.16 1.312s0.128 0.896 0.128 1.312c0 0.16 0 0.288-0.128 0.448-0.288 0.576-0.608 1.024-0.896 1.44-0.704 0.896-1.44 1.6-2.304 2.208-1.024 0.704-2.208 1.28-3.36 1.888s-2.336 1.024-3.488 1.6c-0.576 0.288-1.152 0.416-1.888 0.704-2.176 0.736-4.224 1.312-6.4 1.92-1.6 0.416-3.072 0.704-4.672 0.992-0.864 0.16-1.888 0.288-3.040 0.448 0 0-0.16 0-0.16 0-0.128 0-0.128-0.16-0.128-0.288 0.128-0.448 0.128-1.024 0.288-1.472 0.128-0.288 0.128-0.704 0.128-0.992 0.16-0.448 0.16-1.024 0.32-1.472 0.128-0.576 0.128-1.152 0.288-1.6 0-0.288 0.128-0.576 0.128-0.864 0-0.16 0-0.16-0.128-0.16-0.288 0-0.608 0-0.896 0.16-0.128 0-0.288 0-0.288-0.288 0-0.448 0-0.736 0-1.184s0-0.864 0-1.152c0-0.288 0-0.576 0-0.864 0-0.16 0-0.288 0.16-0.288 0.736-0.448 1.312-1.024 2.016-1.472 0.32-0.128 0.448-0.128 0.736-0.128 0.288 0.128 0.576 0.128 0.864 0.288 0.16 0 0.16 0 0.16-0.16s0-0.128 0-0.288c0.16-0.288 0.288-0.576 0.736-0.576s0.864 0 1.312 0c0 0 0.128 0 0.128 0 0.288 0 0.288 0 0.288-0.288s0-0.576 0.288-0.736c0.16-0.128 0.288-0.128 0.448-0.128 0.576-0.16 1.152-0.448 1.888-0.448 0.448 0 0.864 0 1.312 0.128 0.288 0 0.288 0 0.448-0.128 0.128-0.288 0.288-0.448 0.416-0.448 0.288-0.128 0.576-0.288 0.896-0.288s0.288-0.128 0.288-0.288c0-0.416 0-0.864 0-1.152 0-0.16 0-0.16-0.16-0.288-0.288-0.16-0.736-0.288-1.024-0.288-0.416-0.448-0.576-0.608-0.576-0.736 0-0.448 0-0.864 0-1.312 0-0.288 0.288-0.736 0.576-0.736 0.576-0.128 1.024-0.416 1.6-0.416 0.16 0 0.16-0.16 0.16-0.288 0-0.608 0-1.312 0-1.92 0-0.864 0-1.6 0.128-2.464 0-0.128 0-0.416 0-0.576s0-0.16-0.128-0.288c-0.16 0-0.288 0-0.448-0.16-0.288-0.128-0.576-0.416-0.576-0.704 0-0.16 0-0.16 0-0.288 0-0.32 0.16-0.608 0.448-0.736 0.288 0.128 0.416 0.128 0.704 0 0.16 0 0.16 0 0.16-0.16 0-0.576 0-1.152 0-1.888 0-0.576 0-1.152 0-1.888 0-0.128 0.128-0.288 0.448-0.448 0.288 0 0.416 0 0.704 0 0.16 0 0.16 0.16 0.16 0.32 0 0.288 0 0.576 0 0.864 0 0.576 0 1.312 0 1.888 0 0.288 0 0.576 0 0.864 0 0.16 0 0.16 0.128 0.16 0.448 0.416 0.608 0.416 0.736 0.416 0.448 0.16 0.576 0.448 0.576 0.736 0 0.16 0 0.288 0 0.448-0.128 0.288-0.416 0.416-0.704 0.416-0.16 0-0.32 0-0.448 0s-0.16 0-0.16 0.16c0 0 0 0.128 0 0.128 0 0.16 0 0.16 0.16 0.16 0.864-0.16 1.6-0.16 2.464 0 0.288 0 0.448 0.128 0.736 0.288 0.288 0.448 0.288 1.024-0.288 1.312 0 0-0.16 0-0.16 0-0.288 0.128-0.288 0-0.288 0.448 0 0.576 0 1.152 0 1.728 0 0.16 0 0.288 0.288 0.16 0.16 0 0.448 0 0.576-0.16s0.32-0.128 0.448-0.128c0.16 0 0.16 0 0.288-0.16 0-0.288 0-0.576 0-0.736 0-0.576 0-1.152 0-1.6 0-0.128 0-0.288-0.288-0.288-0.288-0.128-0.448-0.288-0.448-0.416-0.128-0.288 0-0.608 0.32-0.736s0.576-0.288 0.864-0.288c0.288 0 0.736 0 1.024 0 0.416 0 0.864 0 1.152 0.128 0.288 0 0.448 0.16 0.576 0.448 0.16 0.448-0.128 0.864-0.416 1.024s-0.32 0.128-0.32 0.416 0 0.448 0 0.736zM24 11.776c0 0.16 0 0.288 0 0.448s0.16 0.128 0.288 0.128c0.16 0 0.16-0.128 0.16-0.128 0-0.16 0-0.288 0-0.448 0-0.288 0-0.416 0-0.736 0-0.128 0-0.128-0.16 0s-0.416 0.448-0.288 0.736c0-0.128 0 0 0 0zM17.76 9.152c0-0.128 0-0.416 0-0.576s0-0.288-0.16-0.288c-0.128 0-0.128 0.16-0.128 0.288 0 0.736 0 1.472 0 2.176 0 0.16 0 0.448 0 0.608 0 0 0 0.128 0 0.128s0 0 0 0 0 0 0-0.128c0.288-0.736 0.288-1.472 0.288-2.208zM9.024 21.088c-0.16 0-0.448 0-0.576 0-0.288 0-0.288 0-0.288 0.288 0 0 0 0 0 0 0 0.16 0 0.16 0.128 0.16 0.288-0.16 0.448-0.288 0.736-0.448z"></path>
    </symbol>

    <symbol id="boot" viewBox="0 0 32 32">
      <title>boot</title>
      <path d="M30.4 1.312c-0.128-0.576-0.576-1.024-1.152-1.184-0.448-0.128-0.896-0.128-1.312-0.128s-0.736 0.128-1.024 0.448c-0.288 0.288-0.576 0.704-0.736 1.152-0.416 1.024-0.704 2.176-1.024 3.328-0.128 0.608-0.288 1.312-0.576 1.92-0.128 0.416-0.416 0.704-0.864 0.992-0.736 0.448-1.44 0.608-2.336 0.736-0.576 0.16-1.152 0.288-1.728 0.576s-1.184 0.448-1.888 0.576c-0.448 0.16-0.896 0.16-1.312 0.16s-0.736-0.16-1.024-0.288c-0.288-0.16-0.736-0.448-1.152-0.448-0.608-0.128-1.024 0-1.184 0.736 0 0.448-0.128 0.736-0.128 1.152 0 0.896 0 1.76 0.128 2.496 0 0.416 0.16 0.864 0 1.312 0 0.576-0.288 0.992-0.288 1.6 0 0.288-0.128 0.704-0.448 0.992-0.128 0.16-0.288 0.448-0.416 0.608-0.288 0.416-0.576 0.992-1.024 1.28 0 0-0.16 0.16-0.16 0.16-0.128 0.288-0.416 0.448-0.704 0.736-0.576 0.416-1.184 1.024-1.888 1.312-1.184 0.576-2.208 1.312-3.36 2.016-0.864 0.576-1.728 1.312-2.336 2.048-0.416 0.576-0.704 1.152-0.864 2.048 0 0.288-0.128 0.704 0 0.992 0 0.16 0.16 0.32 0 0.448 0 0.448 0.16 0.736 0.16 1.152 0 0.32 0.128 0.448 0.416 0.608 0.448 0.288 0.896 0.576 1.472 0.704 0.416 0.16 1.024 0.288 1.44 0.288s0.736 0 1.024 0.16c0.448 0 0.576 0 0.864 0s0.576-0.16 0.896-0.288c0.128 0 0.288 0 0.416 0 0.576 0.128 1.024 0.128 1.472-0.16 0.128-0.128 0.288-0.128 0.416 0 0.288 0.16 0.736 0.16 1.024 0 0.16 0 0.16-0.128 0.288-0.128s0.16-0.16 0.288 0c0.448 0.128 0.896 0.128 1.184-0.288 0.128-0.16 0.288-0.16 0.288-0.16 0.128 0 0.288 0 0.288 0 0.288 0 0.576-0.128 0.736-0.416 0.288 0 0.416 0 0.576 0 0.288 0 0.416 0 0.704-0.32 0 0 0.16-0.128 0.16-0.128 0-0.16 0.16-0.16 0.288-0.16 0.288 0 0.576-0.128 0.864-0.416 0.16-0.16 0.16-0.16 0.288-0.16s0.448-0.128 0.448-0.288c0.16-0.128 0.288-0.416 0.576-0.288 0.16 0 0.288-0.128 0.448-0.288 0-0.16 0.128-0.16 0.288-0.16s0.16 0 0.288-0.128c0.288-0.16 0.448-0.448 0.448-0.576 0-0.288 0.128-0.448 0.288-0.608s0.288-0.288 0.416-0.288c0.448-0.416 1.184-0.576 1.76-0.864 0.16 0 0.288 0 0.288 0 0.448 0.16 0.864 0.288 1.312 0.448 0.288 0.128 0.576 0 0.864-0.16 0.16-0.128 0.288-0.128 0.448-0.128 0.288 0 0.448 0 0.736-0.16 0.128-0.128 0.128-0.128 0.288-0.128 0.288 0 0.416 0 0.704-0.32 0-0.128 0.16-0.128 0.32-0.128 0.288 0 0.416-0.16 0.576-0.288s0.128-0.16 0.288-0.16c0 0 0.128 0 0.128 0 0.16-0.288 0.288-0.416 0.288-0.704 0-0.448 0.16-0.896 0.16-1.184 0 0 0-0.128 0-0.128 0.288-0.896 0.288-1.76 0.128-2.624-0.128-0.736-0.128-1.312-0.288-2.048-0.128-0.576-0.128-1.152-0.288-1.728 0-0.16 0-0.288 0-0.448 0-0.448 0-0.864 0-1.312 0-0.128 0-0.288 0.16-0.416 0.128-0.32 0.288-0.736 0.288-1.184 0-0.128 0.128-0.288 0.128-0.416 0.32-0.32 0.32-0.448 0.448-0.736 0.16-0.448 0-0.736-0.128-1.184-0.32-0.416-0.608-0.704-0.896-1.152-0.416-0.288-0.416-0.448-0.416-0.576 0.128-0.576 0.416-1.152 0.576-1.6 0.288-0.736 0.576-1.472 0.864-2.048 0.448-1.024 1.024-2.016 1.152-3.2 0.16-0.416 0.16-0.576 0.16-0.864z"></path>
    </symbol>

    <symbol id="iron" viewBox="0 0 32 32">
      <title>iron</title>
      <path d="M6.112 28.672c-0.288 0-0.576 0-1.024 0-0.864 0-1.728 0-2.624-0.16-0.576 0-1.152-0.16-1.728-0.16-0.288 0-0.448-0.128-0.576-0.416-0.16-0.448 0-0.896-0.16-1.472 0-0.128 0-0.288 0-0.416-0.16-0.736 0.16-1.312 0.288-1.888 0.288-0.608 0.736-1.184 1.184-1.6 0.704-0.736 1.44-1.184 2.304-1.76 0.576-0.128 0.896-0.448 1.312-0.576 0.16 0 0.16-0.16 0.16-0.288-0.288-0.896-0.448-1.6-0.576-2.496-0.32-0.864-0.448-1.888-0.736-2.752-0.448-0.864-0.736-1.888-1.024-2.752s-0.16-1.76 0-2.496c0.288-0.992 1.024-1.888 2.048-2.304 0.128 0 0.128-0.16 0.128-0.16 0.16-0.288 0.16-0.576 0.288-0.736 0.448-0.416 0.896-0.704 1.312-0.704 1.024-0.16 2.048-0.288 2.912-0.448 1.152-0.128 2.336-0.288 3.648-0.416 1.024-0.16 2.016-0.32 2.912-0.448 1.44-0.16 2.752-0.288 4.192-0.576 0.736-0.16 1.6-0.16 2.336-0.288 0.576-0.16 1.024 0.128 1.312 0.416 0.16 0.16 0.288 0.288 0.576 0.448 0.288 0 0.448 0.288 0.576 0.416 0 0 0 0 0 0 0.736 0.736 0.608 1.6 0.448 2.496-0.288 1.6-0.576 3.2-0.864 4.64-0.288 1.6-0.576 3.072-0.864 4.672 0 0.128 0 0.288 0.128 0.288 2.176 0.576 4.352 1.152 6.56 1.728 0.288 0 0.416 0.16 0.704 0.16 0.448 0.128 0.608 0.416 0.608 0.864 0 0.288 0 0.576-0.16 0.864 0 0 0 0.16 0 0.16-0.16 0.128-0.288 0.448-0.576 0.576-1.184 0.576-2.336 1.152-3.488 1.76s-2.496 1.312-3.776 1.728c-1.312 0.448-2.496 1.024-3.808 1.472-1.888 0.576-3.904 1.152-5.792 1.6-1.024 0.288-2.208 0.416-3.2 0.576-0.896 0.128-1.92 0.288-2.784 0.288-0.864 0.16-1.44 0.16-2.176 0.16zM23.872 6.976c0 0 0 0 0 0 0-0.128 0 0 0 0-0.32 0-0.608 0.16-0.736 0.16-1.76 0.288-3.36 0.704-5.088 0.992-2.048 0.448-4.096 0.896-6.112 1.312-1.472 0.288-2.912 0.608-4.384 0.896-0.576 0.128-1.152 0-1.6-0.448-0.288-0.288-0.416-0.288-0.576 0.16 0 0 0 0 0 0.128-0.128 0.448-0.128 0.864 0 1.312 0.16 0.736 0.448 1.44 0.576 2.176 0.32 1.312 0.736 2.624 1.024 3.936 0 0.448 0.16 0.864 0.288 1.312 0 0.128 0.16 0.128 0.288 0.128 0.608-0.288 1.312-0.576 1.92-0.704 0.864-0.288 1.728-0.736 2.752-1.024s1.888-0.576 2.912-0.864c0.864-0.32 1.728-0.608 2.624-0.896 0.288-0.128 0.576-0.128 0.864-0.128 0.448 0.128 0.736 0.128 1.152 0.288 0.736 0.128 1.6 0.416 2.336 0.576 0.16 0 0.16 0 0.288-0.16 0.16-0.416 0.16-0.864 0.288-1.28 0.448-2.208 0.864-4.512 1.312-6.72-0.288-0.288-0.128-0.704-0.128-1.152z"></path>
    </symbol>

    <symbol id="scottish-terrier" viewBox="0 0 32 32">
      <title>scottish-terrier</title>
      <path d="M31.136 21.248c0-0.448-0.16-0.896-0.16-1.312s0-0.896-0.288-1.312c0-0.16 0-0.16 0-0.288s0-0.288 0-0.448c-0.128-0.864-0.416-1.728-0.576-2.624-0.16-0.704 0-1.44 0-2.176 0.128-0.864 0.288-1.888 0-2.752-0.16-0.608-0.448-1.184-0.864-1.6-0.288-0.448-0.736-0.736-1.184-1.184-0.128-0.128-0.288-0.288-0.288-0.576 0-0.576 0-1.152 0-1.888 0-0.288 0-0.736-0.128-1.024 0 0 0 0 0 0-0.16-0.416-0.448-0.736-0.736-1.152-0.288-0.288-1.024-0.448-1.312 0s-0.448 0.864-0.576 1.44c-0.16 0.896-0.288 1.472-0.576 2.048-0.16 0.128-0.16 0.288-0.288 0.448-0.448 0.288-0.896 0.576-1.472 0.704-0.736 0.16-1.44 0.448-2.176 0.448s-1.312 0.128-2.048 0.288c-0.704 0.288-1.6 0.288-2.304 0.576-0.16 0-0.288 0-0.448 0-0.288-0.288-0.736-0.576-1.024-1.024 0-0.128-0.128-0.128-0.128-0.128-0.16-0.288-0.448-0.448-0.608-0.864-0.128-0.16-0.288-0.448-0.416-0.608-0.288-0.288-0.448-0.704-0.576-0.992s-0.288-0.608-0.448-0.736c-0.16-0.288-0.288-0.576-0.448-0.864-0.288-0.608-0.704-1.024-0.992-1.6-0.32-0.448-0.736-1.024-1.184-1.312-0.288-0.16-0.576-0.288-0.864-0.448-0.448-0.16-0.576 0-0.736 0.448 0 0.128 0 0.288 0 0.416s0 0.16-0.128 0.16-0.16 0-0.16-0.16c-0.288-0.288-0.576-0.576-1.024-0.864-0.128-0.16-0.416-0.288-0.704-0.16s-0.32 0.448-0.32 0.736c0 0.288 0 0.448 0 0.736s0 0.736 0 1.024c0 0.128 0 0.288-0.288 0.416 0 0.288-0.288 0.448-0.416 0.576-0.288 0.32-0.576 0.608-0.896 0.896s-0.576 0.576-0.864 0.864c-0.128 0.288-0.288 0.576-0.128 1.024 0 0 0 0.128 0 0.128 0 0.16 0.128 0.288 0.288 0.448 0.288 0.16 0.416 0.288 0.416 0.576 0 0.16 0 0.16 0.16 0.288s0.128 0.288 0 0.576c0 0.16-0.16 0.16-0.16 0.32-0.288 0.416-0.704 0.864-1.152 1.28s-0.864 0.896-1.152 1.472c-0.16 0.288-0.288 0.448-0.448 0.736-0.288 0.288-0.288 0.576-0.288 0.864 0 0.128 0 0.288-0.16 0.448s-0.128 0.288 0 0.576c0 0.128 0.16 0.128 0 0.288-0.128 0.288 0 0.576 0 0.864 0 0.448 0.288 0.736 0.448 1.024 0.288 0.288 0.576 0.576 0.864 0.864 0.448 0.448 0.896 0.736 1.312 1.024s0.864 0.288 1.312 0.288c0.736 0 1.472 0 2.048-0.416 0.128 0 0.128 0 0.128 0 0 0.416 0 0.864-0.128 1.28s-0.288 0.896-0.448 1.312c0 0.448-0.128 0.896-0.448 1.184 0 0 0 0.128 0 0.128-0.128 0.16 0 0.448-0.128 0.736s-0.16 0.576-0.16 0.864c0.16 0.576-0.128 1.024-0.128 1.6 0 0.736-0.448 1.312-0.736 1.888s-0.288 1.184 0 1.92c0.16 0.288 0.576 0.576 0.864 0.704 0.16 0.16 0.288 0.16 0.448 0 0.864-0.416 1.888-0.864 2.752-1.152 0.16 0 0.288-0.16 0.288-0.288 0.32-0.448 0.32-0.736 0.448-1.184s0.16-1.024 0.288-1.44c0.16-0.576 0.448-1.024 0.576-1.6 0-0.16 0.16-0.448 0.288-0.576 0 0.128 0 0.128 0 0.288-0.288 0.864-0.416 1.728-0.416 2.752s-0.288 1.888-0.576 2.784c-0.16 0.416-0.288 0.864-0.448 1.312 0 0.704 0.16 0.992 0.736 1.152 0.288 0.128 0.576 0.128 0.864 0.288 0.448 0 1.024 0.16 1.44 0 0.16 0 0.448-0.16 0.608-0.16 0.288 0 0.416 0 0.704-0.288 0.448-0.416 0.736-0.992 0.896-1.6 0-0.576 0.128-0.992 0.128-1.6 0-0.288 0-0.704 0.16-0.992 0.128-0.448 0.288-0.896 0.416-1.312s0.288-0.896 0.448-1.312c0.128-0.608 0.448-1.024 0.736-1.472s0.416-1.024 0.416-1.6c0-0.288 0.288-0.576 0.576-0.576 0.896 0 1.76-0.288 2.624-0.576 0.448-0.16 1.024-0.448 1.472-0.736 0 0 0.128-0.128 0.128 0 0 0 0 0.16 0 0.16-0.128 0.416 0 0.864 0.288 1.152 0.288 0.448 0.736 0.576 1.184 0.736 0.128 0 0.288 0 0.416 0 0.448-0.288 0.736-0.448 1.184-0.576 0.576-0.16 0.864-0.736 0.864-1.312s0-1.024 0-1.6c0 0 0-0.16 0-0.16s0.16 0 0.16 0c0.128 0.16 0.288 0.288 0.288 0.448 0.416 0.416 0.704 1.024 0.576 1.728s-0.288 1.312-0.16 2.048c0 0.288 0.16 0.448 0.288 0.576 0.288 0.16 0.608 0.288 0.896 0.288 0.576 0.16 0.992 0.16 1.6 0.16 0.288 0 0.576-0.16 0.704-0.288 1.024-0.448 1.184-1.184 1.184-1.888z"></path>
    </symbol>

    <symbol id="currency" viewBox="0 0 27 32">
      <title>currency</title>
      <path d="M22.793 16.168h2.767l-0.435-2.676h-2.811l-1.596-8.92-4.15 8.92h-5.607l-4.006-8.92-1.776 8.92h-2.746l-0.484 2.676h2.697l-0.355 1.784h-2.665l-0.484 2.676h2.616l-0.949 4.767h3.074l0.862-4.767h4.375l2.544 5.657 2.621-5.657h4.334l0.775 4.767h3.049l-0.853-4.767h2.694l-0.435-2.676h-2.738l-0.319-1.784zM15.324 16.168l-0.83 1.784h-1.529l-0.801-1.784h3.161zM19.895 16.168l0.29 1.784h-2.659l0.827-1.784h1.542zM9.116 16.168l0.802 1.784h-2.687l0.323-1.784h1.562z"></path>
    </symbol>

    <symbol id="bank" viewBox="0 0 32 32">
      <title>bank</title>
      <path d="M23.424 19.936l0.256 1.472h2.24l0.352 2.24h-2.176l0.672 3.968h-2.496l-0.608-3.968h-3.552l-2.144 4.704-2.080-4.704h-3.584l-0.704 3.968h-2.528l0.8-3.968h-2.144l0.384-2.24h2.176l0.288-1.472h-2.208l0.416-2.24h2.24l1.44-7.424 3.296 7.424h4.576l3.392-7.424 1.312 7.424h2.304l0.352 2.24h-2.272zM17.312 19.936l-0.672 1.472h-1.248l-0.672-1.472h2.592zM21.056 19.936l0.256 1.472h-2.176l0.672-1.472h1.248zM12.224 19.936l0.672 1.472h-2.208l0.288-1.472h1.248zM28.576 13.728h3.424l-16-13.728-16 13.728h3.424v18.272h25.152v-18.272z"></path>
    </symbol>

    <symbol id="house" viewBox="0 0 32 32">
      <title>house</title>
      <polygon points="28.5714286 13.7142857 32 13.7142857 16 0 0 13.7142857 3.42857143 13.7142857 3.42857143 32 28.5714286 32 28.5714286 13.7142857"></polygon>
    </symbol>

    <symbol id="railroad" viewBox="0 0 32 25">
      <title>railroad</title>
      <path fill-rule="evenodd" d="M22.8026844,9.39224712 C22.8026844,9.39224712 21.1133374,7.08865246 21.3209691,4.32957321 C21.4988003,1.96649166 23.5491159,1.23355322 23.5491159,1.23355322 L32,1.2303651 L32,3.41895823 C32,3.41895823 29.2085764,6.34793325 28.6015996,9.43113598 C27.5575521,14.7344862 30.6237605,16.6552108 30.6237605,16.6552108 L30.6237605,18.0024487 L27.4590884,17.9985699 C28.1613146,18.6422141 28.6015996,19.567036 28.6015996,20.5946921 C28.6015996,22.5391588 27.0252979,24.1154605 25.0808312,24.1154605 C23.1363645,24.1154605 21.5600628,22.5391588 21.5600628,20.5946921 C21.5600628,19.567036 22.0003478,18.6422141 22.702574,17.9985699 L14.0872811,17.9985699 C14.7895073,18.6422141 15.2297923,19.567036 15.2297923,20.5946921 C15.2297923,22.5391588 13.6534906,24.1154605 11.7090239,24.1154605 C9.76455721,24.1154605 8.1882555,22.5391588 8.1882555,20.5946921 C8.1882555,19.567036 8.6285405,18.6422141 9.33076674,17.9985699 L7.93267748,17.9985699 L5.95726475,24.1154605 L0,24.1154605 L4.77417704,17.9985699 C3.19963761,17.9705843 1.92911166,16.0152561 1.92911166,13.6954085 C1.92911166,11.3755609 3.19963761,9.4202327 4.77417704,9.39224712 L6.08531538,9.39224712 L3.54689151,1.70845802 L4.74383701,0 L10.2022998,0 L11.3992453,1.70845802 L8.86082147,9.39224712 L22.8026844,9.39224712 Z"></path>
    </symbol>

    <symbol id="water-works" viewBox="0 0 109 92">
      <title>water-works</title>>
      <path fill-rule="evenodd" d="M65.5504908,33.3490172 L51.1344,33.3490172 L50.7417162,36.4904881 C51.9836487,36.4853813 53.2080771,36.4812315 54.4249545,36.4780301 C58.5260963,36.4672405 62.3301658,36.4683413 65.8246801,36.4825538 L65.5504908,33.3490172 Z M68.5619537,33.3490172 L68.7330096,33.3490172 C71.1972122,33.3490172 72.0909983,31.0685575 70.303172,29.384639 L65.2012601,24.579248 L65.2012601,22.2207498 L62.2012601,22.2207498 L62.2012601,14.2207498 L72.0774179,14.2207498 C73.2670932,15.7425194 75.1199377,16.7207498 77.2012601,16.7207498 C80.791111,16.7207498 83.7012601,13.8106006 83.7012601,10.2207498 C83.7012601,6.63089888 80.791111,3.72074976 77.2012601,3.72074976 C74.6935359,3.72074976 72.5174962,5.14085973 71.4334708,7.22074976 L61.997694,7.22074976 C61.9440973,6.87655995 61.8063939,5.73403893 62.0163367,4.08060208 C63.343392,3.99955529 65.2628966,0 58.7278618,0 C52.1928271,7.02162921e-16 53.9733207,4.04527399 55.7230052,4.08060208 C55.7230052,4.08060208 55.7230052,7.11580706 55.7230052,7.31867816 L47.9690524,7.22074976 C46.8850236,5.14085938 44.708984,3.72074976 42.2012601,3.72074976 C38.6114093,3.72074976 35.7012601,6.63089888 35.7012601,10.2207498 C35.7012601,13.8106006 38.6114093,16.7207498 42.2012601,16.7207498 C44.2825826,16.7207498 46.135427,15.7425194 47.3251024,14.2207498 L55.2012601,14.2207498 L55.2012601,22.2207498 L52.2012601,22.2207498 L52.2012601,24.6736561 L47.4167896,29.3817056 C45.9136489,30.8608371 46.4014753,32.737696 48.1262232,33.2276585 L47.7166035,36.5046163 C43.7055099,36.525503 39.4427709,36.5559093 34.6194975,36.5961045 C32.7366104,36.6117957 27.2407923,36.6599569 25.226421,36.6772685 C25.2164712,34.381721 25.1365944,32.8888579 24.8706748,31.1365644 C23.9819935,25.2805436 21.2713639,21.6147739 16.0094942,21.6147739 C9.81995013,21.6147739 2.2747452,29.9198707 1,44.6288301 C-0.433156196,61.1656536 3.65175771,69.859307 11.4403841,69.859307 C15.2970925,69.859307 18.2066175,67.2788269 20.3318023,63.1449255 C21.0390526,61.769185 21.6113113,60.3071101 22.0635732,58.8463703 C22.2163082,58.3530589 22.3380005,57.918925 22.4305248,57.5599143 L43.760142,57.5599143 C43.4793148,59.6860583 45.1519881,60.9451916 48.0384141,60.9451916 C49.828952,60.9451916 51.7756466,60.939308 54.7078832,60.9266582 C55.3572096,60.923833 55.3572096,60.923833 56.004797,60.9209604 C60.2227726,60.9022258 61.7617584,60.8967587 63.5632093,60.8967587 C65.7392002,60.8967587 66.846885,59.8259465 67.0320881,58.2750457 L81.2701101,58.2750457 C86.7819631,58.2750457 91.489606,61.9281813 91.8086622,66.8614779 C91.9450952,68.9710268 91.9964807,72.5559527 91.9782993,77.1800053 C91.9683426,79.712277 91.9380819,82.4229425 91.8938585,85.1635732 C91.8746163,86.3560628 91.854,87.474061 91.8333865,88.4854983 C91.8261744,88.839371 91.8194791,89.1545959 91.8134726,89.4271665 C91.8073011,89.70343 91.8073011,89.70343 91.8059478,89.7610882 L91.7699221,91.2962784 L108.990252,91.2962784 L108.990252,57.361252 C108.990252,46.4565294 99.1641,37.2362784 82.5680012,36.7219668 C78.8743302,36.6075003 74.2790368,36.5348507 68.8375466,36.4985954 L68.5619537,33.3490172 Z M66.087284,39.4836893 C62.5251369,39.4684229 58.6355413,39.4669629 54.4328471,39.4780197 C53.0911342,39.4815496 51.7401471,39.4862341 50.3665165,39.4920851 L50.0036248,42.3952187 L47.0267912,42.0231145 L47.3413509,39.5066372 C43.4475595,39.5274269 39.3084439,39.5571329 34.6444974,39.5960003 C32.5282182,39.6136365 25.8430846,39.6723332 24.6748652,39.6820716 C22.1192217,39.7033756 20.3480095,39.7155812 19.073145,39.7196782 C15.8828168,45.7106497 15.8398162,50.2473473 17.5969742,53.5403114 C17.8078443,53.935488 18.029396,54.2753455 18.2485428,54.5599143 L45.1232701,54.5599143 C45.6298451,53.839924 46.2833649,53.0381429 47.1007561,52.1007206 L49.3618935,54.0723335 C47.8306547,55.8284296 46.9740832,57.0368568 46.763323,57.8093781 C46.9737332,57.8796177 47.3948052,57.9451916 48.0384141,57.9451916 C49.8235249,57.9451916 51.7667329,57.9393185 54.6949412,57.9266861 C55.3439826,57.9238622 55.3439826,57.9238622 55.9914724,57.92099 C60.214552,57.9022327 61.755486,57.8967587 63.5632093,57.8967587 C64.2288352,57.8967587 64.2225896,57.9120886 63.8905873,56.8972626 C63.7647825,56.5127174 63.5790359,56.0861765 63.3493583,55.6410235 C63.1764394,55.3058781 62.9896721,54.9811074 62.8032716,54.6817359 C62.6933652,54.5052189 62.6106598,54.3802363 62.5692099,54.3205477 L65.0333287,52.6093731 C65.2878497,52.9758874 65.6508649,53.5589136 66.0154128,54.2654677 C66.1908623,54.605518 66.3488792,54.9425417 66.4860784,55.2750458 L81.2701101,55.2750457 C88.2557047,55.2750457 94.3725766,60.0217445 94.8024077,66.6678603 C94.9446247,68.866841 94.9967191,72.5012262 94.9782761,77.191801 C94.9682663,79.7375818 94.9378742,82.4600164 94.893468,85.2119755 C94.8757279,86.311375 94.8568235,87.3477357 94.8378221,88.2962784 L105.990252,88.2962784 L105.990252,57.361252 C105.990252,48.143275 97.5105788,40.1864762 82.4750761,39.7205273 C78.8718367,39.6088632 74.3950179,39.5371743 69.1002147,39.5004639 L69.3263032,42.0842874 L66.3377224,42.3457928 L66.087284,39.4836893 Z M54.9062666,26.2207498 L62.5685552,26.2207498 L66.951561,30.3490172 L50.7109892,30.3490172 L54.9062666,26.2207498 Z M19.317952,57.5599143 C19.2799883,57.6897741 19.2399411,57.8229367 19.1977866,57.9590896 C18.7937509,59.2640657 18.2835035,60.5677067 17.6637233,61.7733009 C15.9973922,65.0146418 13.9175081,66.859307 11.4403841,66.859307 C6.24581139,66.859307 2.46877792,59.3977384 4,44.6288301 C5.23754612,32.6924785 11.4403841,24.6147739 16.0094942,24.6147739 C19.4344493,24.6147739 21.2112657,27.0176842 21.9046338,31.5866764 C22.1434007,33.1600459 22.2170802,34.5405462 22.2264563,36.7013588 C20.3926044,36.7148603 19.1150001,36.721247 18.1847773,36.721247 L17.3097051,36.721247 L16.8790248,37.4829988 C12.9952302,44.3523343 12.6555918,49.9828588 14.6056032,54.2556711 C14.5445508,55.6471889 13.3317777,57.8986711 12.5480584,58.168589 C12.3942645,58.0695815 12.1755093,57.793836 11.9368206,57.3014199 C11.2410357,55.8660123 10.6952429,53.2425772 10.3907351,49.3942073 C10.3974443,45.8773048 11.011096,41.9996477 11.9645166,39.0199455 C12.3936099,37.678911 12.8613519,36.6312172 13.277335,36.0393603 C13.4159217,35.8421805 15.5165305,34.3142915 14.3616267,33.1711097 C13.2067229,32.0279279 11.7660364,32.9724387 10.8229232,34.3142915 C10.2032818,35.1959114 9.62080517,36.5005988 9.10722081,38.1056914 C8.05441462,41.3960008 7.39067949,45.6083718 7.39067949,49.4524181 L7.39524908,49.5694134 C8.06389639,58.1160455 10.0194313,62.1503236 13.4704466,61.0233642 C14.8204996,60.5824926 16.0559882,59.0857162 16.8186153,57.4057552 L16.9860682,57.5599143 L19.3179478,57.5599143 Z M57.2012601,21.7207498 L60.2012601,21.7207498 L60.2012601,15.7207498 L57.2012601,15.7207498 L57.2012601,21.7207498 Z M58.7012601,13.7207498 C60.3581144,13.7207498 61.7012601,12.377604 61.7012601,10.7207498 C61.7012601,9.06389551 60.3581144,7.72074976 58.7012601,7.72074976 C57.0444059,7.72074976 55.7012601,9.06389551 55.7012601,10.7207498 C55.7012601,12.377604 57.0444059,13.7207498 58.7012601,13.7207498 Z M42.2012601,13.7207498 C40.2682635,13.7207498 38.7012601,12.1537464 38.7012601,10.2207498 C38.7012601,8.28775313 40.2682635,6.72074976 42.2012601,6.72074976 C44.1342568,6.72074976 45.7012601,8.28775313 45.7012601,10.2207498 C45.7012601,12.1537464 44.1342568,13.7207498 42.2012601,13.7207498 Z M77.2012601,13.7207498 C75.2682635,13.7207498 73.7012601,12.1537464 73.7012601,10.2207498 C73.7012601,8.28775313 75.2682635,6.72074976 77.2012601,6.72074976 C79.1342568,6.72074976 80.7012601,8.28775313 80.7012601,10.2207498 C80.7012601,12.1537464 79.1342568,13.7207498 77.2012601,13.7207498 Z M48.7012601,66.2102479 L61.7012601,66.2102479 L61.7012601,63.2102479 L48.7012601,63.2102479 L48.7012601,66.2102479 Z" fill="#000000"></path>
    </symbol>

    <symbol id="electric-company" viewBox="0 0 94 110">
      <title>electric-company</title>
      <g fill-rule="evenodd">
        <path d="M36.1971945,80.288547 C35.925574,77.7433138 35.8810777,75.5571514 35.3589453,73.1647526 C34.9869304,71.4601884 34.9254924,70.4335662 34.4305166,69.0315422 C33.9338161,67.6246328 33.8478761,65.5884684 33.1226908,64.1884376 C32.8526235,63.6670502 31.97522,62.040442 31.9147413,61.9262031 C30.2521997,58.7858096 29.6324538,56.5972628 29.6324538,52.5868432 C29.6324538,50.7039374 29.1422815,48.7795834 28.1859135,46.468815 C27.8199903,45.5846744 27.397178,44.6652936 26.8135825,43.4630358 C26.6448599,43.1154526 25.6041189,41.0007663 25.3005974,40.3709185 C21.0703017,31.5924901 20.3120739,26.013371 23.3005125,17.6799203 C25.9502547,10.2909462 36.1971945,4.23154991 40.8710421,3.67640277 C48.5465489,2.7647266 56.7997644,2.85787762 61.3045845,6.17625308 C68.2574197,11.2979045 70.4275673,19.1478135 67.8281317,32.5110982 C66.8618709,37.4784911 64.7439293,44.1804727 62.4183282,53.1301723 C62.1078384,54.3250422 61.6321202,57.5191724 61.3045845,58.7596264 C59.8009544,64.4542223 59.5987174,69.3639993 57.9872059,75.1476496 C57.4231527,77.1720141 56.625447,78.6285226 56.1554928,80.288547 C56.0910661,80.5161222 54.9187337,81.8807963 54.860085,82.0874709 C54.860085,82.0874709 36.2479111,80.76379 36.1971945,80.288547 Z" fill="#FFFF00"></path>
        <path d="M33.1313807,85.1508491 L58.0219611,83.1446099 L58.5156776,82.2749905 C58.5421649,82.1825534 58.5928665,82.005127 58.6665268,81.746605 C58.7891357,81.3162909 58.9313167,80.8157296 59.0914401,80.250124 C59.5487717,78.6346867 60.058302,76.8215453 60.6069949,74.8523083 C62.1747561,69.225676 63.7425606,63.4745478 65.2062383,57.9312604 C65.5252711,56.7230091 65.8363899,55.535689 66.1389223,54.371442 C68.4141868,45.6154544 70.1194142,38.4980673 71.076442,33.5781397 C73.8770664,19.1805754 71.2652287,11.0742706 63.1942653,5.12897496 C57.8908289,1.22231657 48.7843535,-0.479306247 40.3564359,0.895678087 C30.6262794,2.48311799 22.7731139,8.14570895 19.9277536,16.4782762 C17.0823934,24.8108434 19.4217708,34.1238935 22.9566173,42.597094 C26.3123167,50.6408703 26.0985946,50.1094311 26.0985946,52.2887043 C26.0985946,56.8812246 26.8771024,59.6304169 28.7773503,63.2198165 C28.8501332,63.357297 29.6890226,64.9125042 29.9324717,65.382503 C30.5568027,66.5878261 30.7286204,67.820802 31.1427401,68.9938003 C31.5628907,70.1838811 32.1909368,72.9476167 32.1909368,72.9476167 C32.1909368,72.9476167 32.8821358,77.5159504 33.1313807,79.8515125 C33.2187821,80.670512 33.0804529,81.5946089 33.1313807,82.2749905 C33.1616223,82.6790094 33.1313807,85.1508491 33.1313807,85.1508491 Z M36.466674,79.1605422 C36.2031905,76.6915571 36.1600272,74.5708861 35.6535364,72.2501568 C35.292666,70.5966566 35.2330686,69.6007891 34.7529209,68.2407659 C34.2711001,66.8760036 34.1877346,64.900837 33.4842739,63.5427472 C33.2222971,63.0369791 32.3711781,61.4590995 32.3125112,61.348283 C30.6997747,58.3019669 30.0985946,56.1789829 30.0985946,52.2887043 C30.0985946,50.462205 29.6231065,48.5954993 28.6953886,46.3539551 C28.3404275,45.4963008 27.9302815,44.6044621 27.3641689,43.4382207 C27.2005008,43.1010501 26.1909375,41.0497139 25.8965086,40.4387346 C21.7929407,31.9232835 21.0574273,26.5112992 23.9563407,18.4274954 C26.5267039,11.2598744 36.466674,5.38200071 41.0005062,4.84348424 C48.4460762,3.95911934 56.4520483,4.04947982 60.8219166,7.268446 C67.5664643,12.236667 69.6716003,19.8514146 67.1500365,32.8143726 C66.2127222,37.6329562 64.1582282,44.1341651 61.9022957,52.8157567 C61.6011073,53.9748316 61.1396403,57.0732746 60.8219166,58.2765681 C59.3633311,63.8005698 59.1671525,68.5632635 57.6039174,74.1736518 C57.0567616,76.1373719 56.2829531,77.5502475 55.8270774,79.1605422 C55.7645807,79.3812999 54.6273681,80.7050921 54.5704763,80.9055754 C54.5704763,80.9055754 36.5158713,79.6215482 36.466674,79.1605422 Z" fill="#000000"></path>
        <path d="M40.2896854,84.2759928 L39.8158501,87.5408851 C39.8158501,87.5408851 32.8676157,88.8807265 32.8104279,89.4757303 C32.7532402,90.0707342 39.580504,89.9895202 39.580504,89.9895202 L39.5251053,91.78703 C39.5251053,91.78703 32.6616636,93.6942295 32.8104279,94.3302608 C32.9591923,94.9662921 39.8158501,94.3302608 39.8158501,94.3302608 L39.8158501,96.7548363 C39.8158501,96.7548363 33.9019446,97.6412149 33.9019446,98.7590107 C33.9019446,99.8768064 40.1199534,98.9707828 40.1199534,98.9707828 L40.1219179,100.411541 L36.6062946,102.393355 C36.1282447,102.662839 36.0346154,103.216534 36.396178,103.628937 L37.7369101,105.158194 C38.0989158,105.571103 38.8350719,105.963922 39.3828307,106.035801 L42.0188764,106.38171 C42.5658875,106.453491 43.3393327,106.801976 43.7612017,107.173082 L45.7203382,108.896478 C46.5457681,109.622585 47.9162857,109.651403 48.7793372,108.962551 L51.5585059,106.744333 C51.9880923,106.401454 52.7791839,106.023287 53.3158101,105.901856 L54.9961924,105.521608 C56.0779349,105.276824 57.414789,104.313202 57.9840738,103.366081 L58.7109035,102.156851 C59.2793223,101.21117 58.9164039,100.095301 57.8920581,99.6609912 L57.61274,99.5425639 C56.5920854,99.1098194 54.8700662,98.7774336 53.7574814,98.8003452 L45.4810509,98.9707828 L45.4810509,97.6558841 C45.4810509,97.6558841 60.0539361,95.6594758 59.7401167,94.6728681 C59.4262974,93.6862605 45.8543043,94.6728681 45.8543043,94.6728681 L45.8543043,93.4174465 C45.8543043,93.4174465 59.2233531,91.78703 58.946855,90.3576659 C58.670357,88.9283018 45.8543043,90.904959 45.8543043,90.904959 L45.8543043,88.6980634 C45.8543043,88.6980634 58.3937233,87.0189072 58.3937233,85.9710934 C58.3937233,84.9232797 48.4841311,85.5725921 48.4841311,85.5725921 L49.0477819,83.2984618 L40.2896854,84.2759928 Z M43.1386716,103.222531 C42.6041736,103.350849 42.5614238,103.689657 43.024089,103.967799 L46.0900777,105.810992 C46.5612935,106.094275 47.2883889,106.036767 47.7216279,105.692841 C47.7216279,105.692841 50.1586766,103.542796 51.816443,103.542796 C53.4742093,103.542796 55.2997791,100.34708 50.3518144,101.511272 C45.4038497,102.675464 43.1386716,103.222531 43.1386716,103.222531 Z" fill="#000000"></path>
        <path d="M41.9300996,54.2810297 C41.7316634,54.723133 41.6074802,55.127149 41.4891739,55.6175654 C41.0412062,57.4745307 40.9182751,61.6072016 41.0170648,67.5280536 C41.0549199,69.7968596 41.3963034,73.1009433 41.4891739,75.5673206 C41.5397969,76.9117229 41.7706272,80.2814415 41.8248759,81.4445383 C41.843874,81.8518588 43.7252873,81.4445383 43.7252873,81.4445383 C43.7217923,81.3785631 44.054119,69.7238317 44.0166473,67.4780054 C43.9230497,61.8683324 44.0434083,57.8221402 44.4055155,56.3210933 C44.4593643,56.0978733 44.522066,55.891423 44.6133572,55.6680313 C45.3102367,55.836167 46.005425,55.8772577 46.6912709,55.841074 C47.2502872,57.400097 47.349523,58.3716318 47.4480138,58.7138938 C47.8496973,60.1097703 47.6497262,63.968616 47.7116836,69.5424244 C47.7453635,72.5723327 48.4260629,75.8540765 48.3764274,79.0069737 C48.3653753,79.7090203 48.3535363,80.3493283 48.3417022,80.9149216 C48.3346145,81.2536698 48.3291148,81.4918085 48.3259952,81.6163718 C48.3259952,81.6163718 50.9099174,81.519566 50.9170937,81.1765836 C50.929033,80.6059591 50.9059574,79.7143638 50.9170937,79.0069737 C50.9671179,75.8293803 50.6287078,72.60282 50.594689,69.5424244 C50.5289409,63.6275925 50.5516568,59.2263675 50.0415552,57.4537311 C49.8344766,56.7341193 48.7519529,53.0285434 47.978468,50.5088499 C49.9948347,47.5008652 51.1335918,45.0231371 52.6994488,41.7500967 C54.6108964,37.7546837 56.6496807,33.2644738 58.0055642,27.9772109 C60.4502168,18.4442962 59.460971,13.4782137 56.2326601,13.0317174 C53.8641216,12.7041333 52.0507327,16.0185746 50.841758,19.5179949 C50.2941192,21.103155 49.2626454,23.3106602 47.8611321,25.9606158 C47.5375079,26.5725187 47.1967781,27.2029897 46.8409546,27.8491747 C45.9658176,29.4384465 45.0492951,32.0264647 44.1148109,33.8467486 C44.0498602,32.9555022 44.0162738,32.0709241 44.0162738,31.1911258 C44.0162738,25.2422698 42.2152803,18.0432371 39.6083196,16.2275809 C37.4748479,14.7416931 35.294384,16.8094064 34.6176663,19.7611175 C34.0293601,22.3271946 34.0270471,26.4889768 34.6176663,32.472397 C35.5675176,42.0951103 37.7446795,49.2400127 40.5258884,52.8048029 C40.9884624,53.3977031 41.4573582,53.8844095 41.9300996,54.2810297 Z M46.3327936,46.3117356 C46.2257013,46.1283845 45.1489134,44.0324215 44.9202356,43.5253031 C44.7131849,43.0661452 44.34031,41.5259262 44.3007614,40.3310054 C44.270729,39.4236085 44.9168019,38.4384052 44.9797672,37.473969 C44.9936208,37.2617749 45.0074006,37.0769775 45.0198204,36.9251266 C45.0806243,36.8262959 45.1517996,36.7102719 45.2326642,36.5780053 C45.5496243,36.059568 45.9528443,34.796007 46.3327936,34.1593116 C47.4185199,32.3399196 48.1135975,30.8540528 49.128394,29.0111556 C49.4921002,28.3506556 50.48145,26.7242443 50.8132326,26.0969157 C52.2809735,23.3217383 53.0680069,22.2612592 53.6773076,20.4976164 C54.3678826,18.4987227 55.0688051,17.8785585 55.8820339,17.8785585 C56.7759444,17.8785585 56.2245948,22.8450647 55.0995957,27.2319945 C53.7918607,32.3315026 51.978929,36.5132264 50.1524634,40.3310054 C49.1144834,42.5006482 48.3627014,44.4520468 47.1803692,46.3117356 C46.9969897,46.0083313 46.5069141,46.6098445 46.3327936,46.3117356 Z M45.3895531,52.2179029 C44.4950859,51.9347257 43.5783035,51.2765856 42.6655311,50.1066474 C40.2929289,47.0655853 38.4791296,41.2841625 37.5800471,32.1757753 C37.0186869,26.4887712 36.6807206,22.475191 37.1800873,20.2970509 C37.2724781,19.8940601 37.9788504,18.9870122 38.5035757,19.3309137 C39.5294782,20.0032834 41.1725708,26.3514771 41.1725708,31.1950543 C41.1725708,37.0992904 42.4039525,43.1075221 44.5988931,49.7644448 C44.7934404,50.3544773 45.105164,51.2450346 45.4582011,52.2389232 C45.4354354,52.2321892 45.4125521,52.2251841 45.3895531,52.2179029 Z" fill="#000000"></path>
        <path d="M77.7957966,10.6718767 C78.3505614,11.6282594 79.5072484,11.8658947 80.3971562,11.1890923 L84.7591619,7.87165203 L87.2859882,5.71321059 C88.1240488,4.99733049 88.5136458,3.57521784 88.1504918,2.52031753 L88.4160567,3.29173822 C88.0554483,2.24423218 86.9874846,1.83850673 86.0252198,2.40236754 C86.0252198,2.40236754 83.7445521,3.64923428 81.8581651,5.11642414 C79.9717782,6.58361401 79.2095328,7.1757258 79.2095328,7.1757258 C77.8993902,8.1940143 77.5128552,10.1841019 78.3450067,11.6186834 L77.7957966,10.6718767 Z" fill="#000000"></path>
        <path d="M80.7043321,30.534095 C81.2946448,31.4689616 82.5445707,31.7813424 83.5340923,31.2867131 C83.5340923,31.2867131 83.9835773,30.804715 86.5722345,30.2339468 C89.1608917,29.6631785 90.4705035,29.8390565 90.4705035,29.8390565 C91.5660632,29.8571325 92.4541898,28.9665316 92.4541898,27.8745125 L92.4541898,27.9659835 C92.4541898,26.8629198 91.5585196,25.9300538 90.4599719,25.9187759 C90.4599719,25.9187759 88.5568156,25.6999811 85.9144536,26.4007022 C83.2720916,27.1014232 82.1748857,27.6669123 82.1748857,27.6669123 C80.7367808,28.2591239 80.2436716,29.8045561 81.0763912,31.1233176 L80.7043321,30.534095 Z" fill="#000000"></path>
        <path d="M78.5095285,46.3398117 C78.5095285,47.4486296 79.4058071,48.4071528 80.4961591,48.4915836 C80.4961591,48.4915836 83.5035584,48.6364654 86.242993,49.2294483 C88.9824276,49.8224312 91.1728439,50.2131836 91.1728439,50.2131836 C92.2580004,50.4153532 93.1376936,49.6889322 93.1376936,48.5798437 L93.1376936,48.8218329 C93.1376936,47.7175946 92.2581143,46.6533289 91.1772677,46.4302641 C91.1772677,46.4302641 89.7931195,46.2172329 87.0477934,45.406541 C84.3024673,44.595849 80.5054247,44.866836 80.5054247,44.866836 C79.4031217,44.9017686 78.5095285,45.8279732 78.5095285,46.9377796 L78.5095285,46.3398117 Z" fill="#000000"></path>
        <path d="M78,66.2065548 C78,67.3115954 78.8796432,68.377567 79.9487148,68.6368444 C79.9487148,68.6368444 82.079913,68.8498375 83.8719487,70.4161561 C85.6639844,71.9824747 86.7425545,73.0504708 86.7425545,73.0504708 C87.5415576,73.8148554 88.8097706,73.7824334 89.5625683,72.9913156 L89.086739,73.4913664 C89.8451864,72.6943113 89.8781666,71.3771496 89.1204377,70.5726525 C89.1204377,70.5726525 89.0337627,70.2714144 86.5575186,68.2074078 C84.0812746,66.1434012 79.9249329,65.1736143 79.9249329,65.1736143 C78.8618218,64.8704554 78,65.528766 78,66.6255496 L78,66.2065548 Z" fill="#000000"></path>
        <path d="M71.0051677,78.9328366 C70.2087348,79.693332 70.2229157,80.9247165 71.0236207,81.6681586 C71.0236207,81.6681586 73.4872551,83.9773036 75.2792908,85.5436222 C77.0713265,87.1099408 78.2710542,89.221076 78.2710542,89.221076 C78.865025,90.1425503 80.0707864,90.3539056 80.9498791,89.7037413 L80.5555494,89.9953819 C81.4410528,89.3404763 81.7814227,88.0001184 81.2710777,87.009534 C81.2710777,87.009534 80.2887905,84.4469327 77.8125464,82.3829261 C75.3363024,80.3189195 73.5082448,79.2224139 73.5082448,79.2224139 C72.5869623,78.6221636 71.1937042,78.7528074 70.3980458,79.5125633 L71.0051677,78.9328366 Z" fill="#000000"></path>
        <path d="M6.33118965,6.63948834 C5.90764641,7.66349084 6.4244786,8.77370919 7.45324176,9.14691998 C7.45324176,9.14691998 7.81162965,9.15877986 10.0277133,10.2692808 C12.243797,11.3797818 12.5884497,11.7145469 12.5884497,11.7145469 C13.5103362,12.32023 14.6206479,12.0012408 15.0777277,10.9812503 L14.8760419,11.4313196 C15.3289458,10.4206479 14.8842243,9.23474981 13.8775641,8.74934506 C13.8775641,8.74934506 13.3519952,8.59648244 11.4163433,7.39184839 C9.48069134,6.18721435 8.78104707,5.94985994 8.78104707,5.94985994 C7.77905045,5.48206297 6.62727165,5.9236495 6.19987883,6.95695914 L6.33118965,6.63948834 Z" fill="#000000"></path>
        <path d="M1.14838601,23.8759143 C0.724842763,24.8999168 1.22019419,26.0277422 2.26544138,26.3763 C2.26544138,26.3763 2.3702591,26.4730052 4.88253414,27.1572367 C7.39480918,27.8414683 8.88565008,28.0744897 8.88565008,28.0744897 C9.43211375,28.1744132 9.93736546,27.8132826 10.0150094,27.2618589 L10.0287653,27.1641653 C10.1060296,26.6154381 9.80027289,25.9165808 9.33919695,25.622773 C9.33919695,25.622773 8.43898376,24.8950048 6.42090337,24.2342922 C4.40282299,23.5735796 3.60706172,23.1510185 3.60706172,23.1510185 C2.6001949,22.7026992 1.444468,23.1600755 1.01707518,24.1933851 L1.14838601,23.8759143 Z" fill="#000000"></path>
        <path d="M0.151279736,45.8967058 C-0.272263507,46.9207083 0.279145139,47.723105 1.38288917,47.6721854 C1.38288917,47.6721854 3.5640113,47.6702585 6.05670011,47.1796643 C8.54938893,46.6890702 11.1234395,46.3819285 11.1234395,46.3819285 C11.668297,46.3118741 12.1099913,45.8079099 12.1099913,45.2502743 L12.1099913,44.4766645 C12.1099913,43.9217236 11.6724404,43.4274138 11.1204709,43.3747298 C11.1204709,43.3747298 8.71506827,43.1094226 6.68338413,43.1094226 C4.6517,43.1094226 2.69225384,43.8078695 2.69225384,43.8078695 C1.63993487,44.1128337 0.447361732,45.1808669 0.0199689112,46.2141766 L0.151279736,45.8967058 Z" fill="#000000"></path>
        <path d="M3.8632156,70.5488619 C3.75631365,71.6455649 4.44161482,72.0733035 5.38699662,71.5129171 C5.38699662,71.5129171 9.17412227,69.2236091 11.5925292,68.0164553 C14.0109362,66.8093016 17.8346477,63.6223905 17.8346477,63.6223905 C18.6912735,62.9328719 18.7268089,61.7797251 17.8978719,61.0322046 L18.09322,61.208366 C17.2715119,60.4673644 15.9227029,60.4539003 15.0774547,61.1684665 C15.0774547,61.1684665 13.4540417,62.6131893 11.5925292,63.9147101 C9.7310168,65.216231 5.66474761,67.9395605 5.66474761,67.9395605 C4.75039925,68.5536599 3.92173837,69.948479 3.81561035,71.0372424 L3.8632156,70.5488619 Z" fill="#000000"></path>
        <path d="M13.4795768,84.3208207 C14.0897768,85.2400024 15.2834061,85.4383336 16.1567767,84.7453553 C16.1567767,84.7453553 18.4901007,82.9636501 20.5218338,81.0527133 C22.5535668,79.1417766 24.7142808,76.4304213 24.7142808,76.4304213 C25.0617514,76.0055863 25.0450451,75.3141666 24.6954865,74.9076312 L23.7089549,73.7602985 C23.3511045,73.3441197 22.7428523,73.3226588 22.3507642,73.7121551 C22.3507642,73.7121551 20.1026951,75.9431452 18.4954479,77.5533995 C16.8882008,79.1636538 14.2305035,81.9196475 14.2305035,81.9196475 C13.4624768,82.7135794 13.3351264,84.1032263 13.9447331,85.0215142 L13.4795768,84.3208207 Z" fill="#000000"></path>
      </g>
    </symbol>
  </defs>
</svg>
