<svg style="position: absolute; width: 0; height: 0; overflow: hidden;" version="1.1" xmlns="http://www.w3.org/2000/svg" xmlns:xlink="http://www.w3.org/1999/xlink">
  <defs>
    <symbol id="icon-thimble" viewBox="0 0 32 32">
      <title>thimble</title>
      <path class="path1" d="M26.464 27.040c0-0.416-0.128-0.864-0.128-1.152s0-0.736-0.16-1.024c-0.128-0.128-0.128-0.416-0.128-0.576-0.16-1.024-0.16-2.048-0.288-2.912s-0.16-1.728-0.288-2.624c0-0.416-0.16-0.704-0.16-1.152 0-0.736-0.16-1.44-0.288-2.336-0.16-0.704-0.16-1.6-0.288-2.304s-0.16-1.472-0.16-2.048c0-0.576-0.128-1.024-0.128-1.472 0-0.576-0.16-1.152-0.16-1.728-0.128-1.024-0.128-2.048-0.288-3.072 0-0.288 0-0.576-0.128-0.864-0.288-0.576-0.736-1.024-1.184-1.44-0.704-0.576-1.6-1.024-2.464-1.312-1.312-0.736-2.752-1.024-4.224-1.024-0.288 0-0.576 0-0.864 0-0.576 0-1.024 0.16-1.6 0.16-1.024 0.288-2.048 0.704-2.912 1.28-0.736 0.32-1.312 0.608-1.76 1.184-0.416 0.416-0.704 0.864-0.704 1.44 0 0.448-0.16 1.024-0.16 1.472-0.128 0.704-0.128 1.44-0.288 2.176 0 0.864-0.16 1.728-0.288 2.624 0 0.864-0.16 1.888-0.288 2.912-0.16 1.152-0.288 2.304-0.448 3.488-0.128 0.992-0.128 2.176-0.288 3.2-0.128 0.864-0.128 1.888-0.288 2.752 0 0.576-0.16 1.024-0.16 1.6 0 0.16 0 0.288-0.128 0.288 0 0.288 0 0.576-0.16 0.736 0 0.576-0.128 1.312-0.128 1.888s0 1.024 0.288 1.44c0.288 0.608 0.864 1.024 1.44 1.472 0.736 0.448 1.6 0.864 2.624 1.152 1.184 0.288 2.336 0.576 3.488 0.736 0.896 0 1.76 0 2.624 0s1.76 0 2.464-0.16c1.472-0.128 3.072-0.416 4.384-0.992 0.864-0.288 1.728-0.736 2.464-1.312 0.864-0.736 1.312-1.472 1.152-2.496z"></path>
    </symbol>

    <symbol id="icon-top-hat" viewBox="0 0 32 32">
      <title>top-hat</title>
      <path class="path1" d="M32 18.624c-0.128-0.288-0.288-0.448-0.576-0.576-0.288-0.32-0.736-0.448-1.184-0.608-1.152-0.416-2.464-0.864-3.616-1.152-0.16 0-0.288-0.16-0.288-0.288 0-0.576 0-1.024 0.128-1.6 0.16-0.864 0.16-1.6 0.16-2.464 0-0.608 0-1.024 0.128-1.6 0-0.896 0.16-1.6 0.16-2.496 0-0.416 0-0.864 0.128-1.152 0-0.288-0.128-0.576-0.288-0.864-0.416-0.288-0.992-0.448-1.44-0.576-1.6-0.448-3.2-0.608-4.8-0.608-1.312 0-2.464-0.128-3.648 0-0.576 0-1.152 0-1.6 0-0.864 0-1.6 0.16-2.464 0.288-1.44 0.32-2.624 0.448-3.776 0.736-0.864 0-1.76 0.16-2.464 0.448-0.448 0.128-0.736 0.288-1.024 0.416-0.448 0.288-0.576 0.608-0.576 1.024 0 0.576 0.128 1.184 0.128 1.888 0 1.024 0.16 2.048 0.16 3.072 0 0.704 0 1.44 0.128 2.016 0 0.16 0 0.16-0.128 0.288-1.472 0.448-2.624 1.184-3.648 2.336-0.288 0.448-0.736 0.736-0.864 1.184-0.448 0.704-0.736 1.44-0.736 2.464 0 0.288 0 0.416 0 0.736 0 0.576 0.16 1.152 0.448 1.6 0.576 0.864 1.312 1.6 2.304 2.016 0.448 0.288 0.896 0.448 1.312 0.576 0.896 0.448 1.76 0.736 2.624 1.024 1.472 0.448 3.072 0.448 4.672 0.448 0.864 0 1.888-0.16 2.752-0.16 1.44-0.128 2.912-0.416 4.224-0.864 1.728-0.576 3.488-1.152 5.088-2.048 1.44-0.704 2.752-1.44 4.224-2.016 0.704-0.288 1.312-0.576 2.016-0.896 0.448-0.128 0.896-0.416 1.312-0.576s0.736-0.416 0.864-1.024c0-0.128 0-0.416 0.16-0.576 0-0.128 0-0.288 0-0.416z"></path>
    </symbol>

    <symbol id="icon-wheelbarrow" viewBox="0 0 32 32">
      <title>wheelbarrow</title>
      <path class="path1" d="M5.664 15.424c0-0.736 0-1.312 0-2.048 0-0.864 0-1.888-0.128-2.752 0-0.448 0-1.024 0-1.472 0-0.128 0-0.288 0.128-0.288 1.184-0.128 2.336-0.416 3.488-0.576 1.024-0.128 2.048-0.288 2.912-0.448 0.736-0.128 1.312-0.288 2.048-0.288 1.152 0.16 2.176 0.288 3.040 1.024 0.32 0.16 0.608 0.448 0.736 0.736 0.16 0.128 0.16 0.128 0.288 0.128 0.576 0 1.184-0.128 1.76-0.128 1.152-0.16 2.304 0 3.488 0.128 0.736 0.16 1.6 0.448 2.336 0.896s1.28 0.992 1.6 1.728c0.288 0.448 0.128 0.288 0.576 0.16 1.024-0.288 1.888-0.576 2.912-0.896 0.288-0.128 0.576 0 0.704 0 0.288 0.32 0.448 0.448 0.448 0.608 0 0.288 0 0.416 0 0.704 0 0.16-0.16 0.288-0.288 0.288-0.864 0.32-1.888 0.608-2.752 1.024-0.608 0.16-1.184 0.448-1.76 0.576-0.16 0-0.16 0.16-0.288 0.32-0.448 0.992-0.864 1.888-1.312 2.88-0.16 0.32-0.16 0.448-0.448 0.608-0.128 0-0.288 0.128-0.416 0-0.448-0.16-0.896-0.448-1.472-0.736s-0.992-0.736-1.6-1.024c-0.128 0-0.128-0.128-0.288 0-1.728 0.576-3.488 1.152-5.088 1.76-0.864 0.288-1.6 0.576-2.464 0.864-0.576 0.128-1.024 0.288-1.6 0.576-0.448 0.16-1.024 0.16-1.472 0.288-0.576 0-1.152 0.16-1.728 0.16s-1.184 0.128-1.76 0.128c0 0 0 0 0 0-0.416 0-0.416 0-0.416 0.448s-0.288 1.024-0.448 1.44c-0.288 0.736-0.736 1.312-1.312 1.76-0.736 0.416-1.44 0.736-2.336 0.576-0.288 0-0.576-0.288-0.864-0.448-0.416-0.288-0.864-0.576-1.152-0.992-0.576-0.896-0.736-1.472-0.736-2.208s0.288-1.28 0.576-1.888c0.448-0.704 1.024-1.44 1.76-1.888 0.864-0.416 1.728-0.576 2.624-0.128 0.288 0.128 0.288 0.128 0.288-0.16 0.128-0.288 0.128-0.416 0.288-0.736 0.128-0.128 0.128-0.416 0.128-0.704z"></path>
    </symbol>

    <symbol id="icon-automobile" viewBox="0 0 32 32">
      <title>automobile</title>
      <path class="path1" d="M31.872 13.824c-0.16-0.736-0.608-1.312-1.472-1.472-0.128 0-0.128-0.128-0.288-0.288 0-0.416-0.16-0.864-0.16-1.312-0.128-0.864-0.416-1.888-0.864-2.752-0.576-1.312-1.44-2.336-2.624-3.2-0.704-0.576-1.6-1.024-2.592-0.864-0.896 0-1.6 0.576-2.048 1.312-0.16 0.288-0.16 0.416-0.448 0.576-0.128 0.128-0.416 0.288-0.576 0.576-0.128 0.128-0.128 0.128-0.288 0-0.736-0.448-1.44-0.736-2.336-0.736-0.704 0-1.44 0.288-1.888 0.864s-0.864 1.184-1.312 1.76c0 0.448 0 0.448-0.128 0.448-0.288 0.128-0.576 0.288-1.024 0.416-0.736 0.448-1.472 0.736-2.176 1.024s-1.312 0.576-2.048 0.864c-0.736 0.288-1.312 0.608-2.016 0.896s-1.472 0.576-2.208 0.864c-1.152 0.448-2.176 0.864-3.2 1.728-0.288 0.32-0.576 0.608-0.704 1.024-0.16 0.288-0.16 0.736-0.16 1.024 0 0.16 0 0.288-0.128 0.448-0.608 0.864-0.896 1.728-1.024 2.624s0 1.728 0.288 2.464c0.288 0.576 0.736 1.152 1.312 1.44s1.152 0.576 1.728 0.896c0.736 0.288 1.6 0.128 2.336-0.16 0.448-0.16 0.736-0.288 1.152-0.288 0.16 0 0.16 0 0.288 0s0.32 0 0.32 0.128c0 0.448 0.128 0.736 0.288 1.184 0.288 0.576 0.576 1.152 1.152 1.44 0.736 0.448 1.44 0.736 2.176 1.024 0.16 0 0.288 0.16 0.448 0.16 0.864 0.128 1.6-0.16 2.336-0.608 0.992-0.704 1.728-1.6 2.304-2.752 0.448-0.864 0.576-1.76 0.736-2.752 0-0.16 0-0.16 0.16-0.288 0.416-0.16 0.864-0.32 1.28-0.608 1.92-0.704 3.648-1.44 5.536-2.176 0.736-0.288 1.312-0.576 2.048-0.864 0.128 0 0.128 0 0.288 0.128 0 0.16 0 0.32 0.128 0.448 0.288 0.576 0.608 1.024 1.184 1.152 0.416 0.16 0.864 0.16 1.312 0.448 0.576 0.16 0.992 0 1.44-0.288 0.576-0.448 0.864-1.024 1.312-1.6 0.448-1.024 0.736-2.048 0.736-3.072-0.288-0.576-0.448-0.992-0.576-1.28z"></path>
    </symbol>

    <symbol id="icon-battleship" viewBox="0 0 32 32">
      <title>battleship</title>
      <path class="path1" d="M24.16 8.576c0.128-0.128 0.288-0.416 0.416-0.576 0.448-0.288 0.736-0.448 1.312-0.288 0.448 0.128 0.736 0.416 0.864 1.024 0.16 0.416 0 0.864-0.288 1.152-0.128 0-0.288 0.288-0.128 0.448 0 0.288 0 0.576 0 0.864 0 0.736 0 1.44-0.16 2.176 0 0 0 0.16 0 0.16 0 0.128 0 0.128 0.16 0.128 0.288 0 0.416 0.16 0.704 0.288 0.16 0.16 0.16 0.288 0.16 0.448s0 0.128 0.16 0c0 0 0.128-0.16 0.128-0.16 0.288-0.128 0.448-0.128 0.736 0.16 0.128 0.128 0.128 0.448-0.16 0.736-0.288 0.128-0.416 0.288-0.704 0.576 0 0-0.16 0.128-0.16 0.128s0 0 0 0 0 0 0.16 0c0 0 0 0 0 0 0.416-0.128 0.864-0.128 1.28-0.128 0.32 0 0.32 0 0.32 0.288 0.128 0.576 0.128 1.152 0.128 1.728 0 0.448 0.16 0.896 0.16 1.312s0.128 0.896 0.128 1.312c0 0.16 0 0.288-0.128 0.448-0.288 0.576-0.608 1.024-0.896 1.44-0.704 0.896-1.44 1.6-2.304 2.208-1.024 0.704-2.208 1.28-3.36 1.888s-2.336 1.024-3.488 1.6c-0.576 0.288-1.152 0.416-1.888 0.704-2.176 0.736-4.224 1.312-6.4 1.92-1.6 0.416-3.072 0.704-4.672 0.992-0.864 0.16-1.888 0.288-3.040 0.448 0 0-0.16 0-0.16 0-0.128 0-0.128-0.16-0.128-0.288 0.128-0.448 0.128-1.024 0.288-1.472 0.128-0.288 0.128-0.704 0.128-0.992 0.16-0.448 0.16-1.024 0.32-1.472 0.128-0.576 0.128-1.152 0.288-1.6 0-0.288 0.128-0.576 0.128-0.864 0-0.16 0-0.16-0.128-0.16-0.288 0-0.608 0-0.896 0.16-0.128 0-0.288 0-0.288-0.288 0-0.448 0-0.736 0-1.184s0-0.864 0-1.152c0-0.288 0-0.576 0-0.864 0-0.16 0-0.288 0.16-0.288 0.736-0.448 1.312-1.024 2.016-1.472 0.32-0.128 0.448-0.128 0.736-0.128 0.288 0.128 0.576 0.128 0.864 0.288 0.16 0 0.16 0 0.16-0.16s0-0.128 0-0.288c0.16-0.288 0.288-0.576 0.736-0.576s0.864 0 1.312 0c0 0 0.128 0 0.128 0 0.288 0 0.288 0 0.288-0.288s0-0.576 0.288-0.736c0.16-0.128 0.288-0.128 0.448-0.128 0.576-0.16 1.152-0.448 1.888-0.448 0.448 0 0.864 0 1.312 0.128 0.288 0 0.288 0 0.448-0.128 0.128-0.288 0.288-0.448 0.416-0.448 0.288-0.128 0.576-0.288 0.896-0.288s0.288-0.128 0.288-0.288c0-0.416 0-0.864 0-1.152 0-0.16 0-0.16-0.16-0.288-0.288-0.16-0.736-0.288-1.024-0.288-0.416-0.448-0.576-0.608-0.576-0.736 0-0.448 0-0.864 0-1.312 0-0.288 0.288-0.736 0.576-0.736 0.576-0.128 1.024-0.416 1.6-0.416 0.16 0 0.16-0.16 0.16-0.288 0-0.608 0-1.312 0-1.92 0-0.864 0-1.6 0.128-2.464 0-0.128 0-0.416 0-0.576s0-0.16-0.128-0.288c-0.16 0-0.288 0-0.448-0.16-0.288-0.128-0.576-0.416-0.576-0.704 0-0.16 0-0.16 0-0.288 0-0.32 0.16-0.608 0.448-0.736 0.288 0.128 0.416 0.128 0.704 0 0.16 0 0.16 0 0.16-0.16 0-0.576 0-1.152 0-1.888 0-0.576 0-1.152 0-1.888 0-0.128 0.128-0.288 0.448-0.448 0.288 0 0.416 0 0.704 0 0.16 0 0.16 0.16 0.16 0.32 0 0.288 0 0.576 0 0.864 0 0.576 0 1.312 0 1.888 0 0.288 0 0.576 0 0.864 0 0.16 0 0.16 0.128 0.16 0.448 0.416 0.608 0.416 0.736 0.416 0.448 0.16 0.576 0.448 0.576 0.736 0 0.16 0 0.288 0 0.448-0.128 0.288-0.416 0.416-0.704 0.416-0.16 0-0.32 0-0.448 0s-0.16 0-0.16 0.16c0 0 0 0.128 0 0.128 0 0.16 0 0.16 0.16 0.16 0.864-0.16 1.6-0.16 2.464 0 0.288 0 0.448 0.128 0.736 0.288 0.288 0.448 0.288 1.024-0.288 1.312 0 0-0.16 0-0.16 0-0.288 0.128-0.288 0-0.288 0.448 0 0.576 0 1.152 0 1.728 0 0.16 0 0.288 0.288 0.16 0.16 0 0.448 0 0.576-0.16s0.32-0.128 0.448-0.128c0.16 0 0.16 0 0.288-0.16 0-0.288 0-0.576 0-0.736 0-0.576 0-1.152 0-1.6 0-0.128 0-0.288-0.288-0.288-0.288-0.128-0.448-0.288-0.448-0.416-0.128-0.288 0-0.608 0.32-0.736s0.576-0.288 0.864-0.288c0.288 0 0.736 0 1.024 0 0.416 0 0.864 0 1.152 0.128 0.288 0 0.448 0.16 0.576 0.448 0.16 0.448-0.128 0.864-0.416 1.024s-0.32 0.128-0.32 0.416 0 0.448 0 0.736zM24 11.776c0 0.16 0 0.288 0 0.448s0.16 0.128 0.288 0.128c0.16 0 0.16-0.128 0.16-0.128 0-0.16 0-0.288 0-0.448 0-0.288 0-0.416 0-0.736 0-0.128 0-0.128-0.16 0s-0.416 0.448-0.288 0.736c0-0.128 0 0 0 0zM17.76 9.152c0-0.128 0-0.416 0-0.576s0-0.288-0.16-0.288c-0.128 0-0.128 0.16-0.128 0.288 0 0.736 0 1.472 0 2.176 0 0.16 0 0.448 0 0.608 0 0 0 0.128 0 0.128s0 0 0 0 0 0 0-0.128c0.288-0.736 0.288-1.472 0.288-2.208zM9.024 21.088c-0.16 0-0.448 0-0.576 0-0.288 0-0.288 0-0.288 0.288 0 0 0 0 0 0 0 0.16 0 0.16 0.128 0.16 0.288-0.16 0.448-0.288 0.736-0.448z"></path>
    </symbol>

    <symbol id="icon-boot" viewBox="0 0 32 32">
      <title>boot</title>
      <path class="path1" d="M30.4 1.312c-0.128-0.576-0.576-1.024-1.152-1.184-0.448-0.128-0.896-0.128-1.312-0.128s-0.736 0.128-1.024 0.448c-0.288 0.288-0.576 0.704-0.736 1.152-0.416 1.024-0.704 2.176-1.024 3.328-0.128 0.608-0.288 1.312-0.576 1.92-0.128 0.416-0.416 0.704-0.864 0.992-0.736 0.448-1.44 0.608-2.336 0.736-0.576 0.16-1.152 0.288-1.728 0.576s-1.184 0.448-1.888 0.576c-0.448 0.16-0.896 0.16-1.312 0.16s-0.736-0.16-1.024-0.288c-0.288-0.16-0.736-0.448-1.152-0.448-0.608-0.128-1.024 0-1.184 0.736 0 0.448-0.128 0.736-0.128 1.152 0 0.896 0 1.76 0.128 2.496 0 0.416 0.16 0.864 0 1.312 0 0.576-0.288 0.992-0.288 1.6 0 0.288-0.128 0.704-0.448 0.992-0.128 0.16-0.288 0.448-0.416 0.608-0.288 0.416-0.576 0.992-1.024 1.28 0 0-0.16 0.16-0.16 0.16-0.128 0.288-0.416 0.448-0.704 0.736-0.576 0.416-1.184 1.024-1.888 1.312-1.184 0.576-2.208 1.312-3.36 2.016-0.864 0.576-1.728 1.312-2.336 2.048-0.416 0.576-0.704 1.152-0.864 2.048 0 0.288-0.128 0.704 0 0.992 0 0.16 0.16 0.32 0 0.448 0 0.448 0.16 0.736 0.16 1.152 0 0.32 0.128 0.448 0.416 0.608 0.448 0.288 0.896 0.576 1.472 0.704 0.416 0.16 1.024 0.288 1.44 0.288s0.736 0 1.024 0.16c0.448 0 0.576 0 0.864 0s0.576-0.16 0.896-0.288c0.128 0 0.288 0 0.416 0 0.576 0.128 1.024 0.128 1.472-0.16 0.128-0.128 0.288-0.128 0.416 0 0.288 0.16 0.736 0.16 1.024 0 0.16 0 0.16-0.128 0.288-0.128s0.16-0.16 0.288 0c0.448 0.128 0.896 0.128 1.184-0.288 0.128-0.16 0.288-0.16 0.288-0.16 0.128 0 0.288 0 0.288 0 0.288 0 0.576-0.128 0.736-0.416 0.288 0 0.416 0 0.576 0 0.288 0 0.416 0 0.704-0.32 0 0 0.16-0.128 0.16-0.128 0-0.16 0.16-0.16 0.288-0.16 0.288 0 0.576-0.128 0.864-0.416 0.16-0.16 0.16-0.16 0.288-0.16s0.448-0.128 0.448-0.288c0.16-0.128 0.288-0.416 0.576-0.288 0.16 0 0.288-0.128 0.448-0.288 0-0.16 0.128-0.16 0.288-0.16s0.16 0 0.288-0.128c0.288-0.16 0.448-0.448 0.448-0.576 0-0.288 0.128-0.448 0.288-0.608s0.288-0.288 0.416-0.288c0.448-0.416 1.184-0.576 1.76-0.864 0.16 0 0.288 0 0.288 0 0.448 0.16 0.864 0.288 1.312 0.448 0.288 0.128 0.576 0 0.864-0.16 0.16-0.128 0.288-0.128 0.448-0.128 0.288 0 0.448 0 0.736-0.16 0.128-0.128 0.128-0.128 0.288-0.128 0.288 0 0.416 0 0.704-0.32 0-0.128 0.16-0.128 0.32-0.128 0.288 0 0.416-0.16 0.576-0.288s0.128-0.16 0.288-0.16c0 0 0.128 0 0.128 0 0.16-0.288 0.288-0.416 0.288-0.704 0-0.448 0.16-0.896 0.16-1.184 0 0 0-0.128 0-0.128 0.288-0.896 0.288-1.76 0.128-2.624-0.128-0.736-0.128-1.312-0.288-2.048-0.128-0.576-0.128-1.152-0.288-1.728 0-0.16 0-0.288 0-0.448 0-0.448 0-0.864 0-1.312 0-0.128 0-0.288 0.16-0.416 0.128-0.32 0.288-0.736 0.288-1.184 0-0.128 0.128-0.288 0.128-0.416 0.32-0.32 0.32-0.448 0.448-0.736 0.16-0.448 0-0.736-0.128-1.184-0.32-0.416-0.608-0.704-0.896-1.152-0.416-0.288-0.416-0.448-0.416-0.576 0.128-0.576 0.416-1.152 0.576-1.6 0.288-0.736 0.576-1.472 0.864-2.048 0.448-1.024 1.024-2.016 1.152-3.2 0.16-0.416 0.16-0.576 0.16-0.864z"></path>
    </symbol>

    <symbol id="icon-iron" viewBox="0 0 32 32">
      <title>iron</title>
      <path class="path1" d="M6.112 28.672c-0.288 0-0.576 0-1.024 0-0.864 0-1.728 0-2.624-0.16-0.576 0-1.152-0.16-1.728-0.16-0.288 0-0.448-0.128-0.576-0.416-0.16-0.448 0-0.896-0.16-1.472 0-0.128 0-0.288 0-0.416-0.16-0.736 0.16-1.312 0.288-1.888 0.288-0.608 0.736-1.184 1.184-1.6 0.704-0.736 1.44-1.184 2.304-1.76 0.576-0.128 0.896-0.448 1.312-0.576 0.16 0 0.16-0.16 0.16-0.288-0.288-0.896-0.448-1.6-0.576-2.496-0.32-0.864-0.448-1.888-0.736-2.752-0.448-0.864-0.736-1.888-1.024-2.752s-0.16-1.76 0-2.496c0.288-0.992 1.024-1.888 2.048-2.304 0.128 0 0.128-0.16 0.128-0.16 0.16-0.288 0.16-0.576 0.288-0.736 0.448-0.416 0.896-0.704 1.312-0.704 1.024-0.16 2.048-0.288 2.912-0.448 1.152-0.128 2.336-0.288 3.648-0.416 1.024-0.16 2.016-0.32 2.912-0.448 1.44-0.16 2.752-0.288 4.192-0.576 0.736-0.16 1.6-0.16 2.336-0.288 0.576-0.16 1.024 0.128 1.312 0.416 0.16 0.16 0.288 0.288 0.576 0.448 0.288 0 0.448 0.288 0.576 0.416 0 0 0 0 0 0 0.736 0.736 0.608 1.6 0.448 2.496-0.288 1.6-0.576 3.2-0.864 4.64-0.288 1.6-0.576 3.072-0.864 4.672 0 0.128 0 0.288 0.128 0.288 2.176 0.576 4.352 1.152 6.56 1.728 0.288 0 0.416 0.16 0.704 0.16 0.448 0.128 0.608 0.416 0.608 0.864 0 0.288 0 0.576-0.16 0.864 0 0 0 0.16 0 0.16-0.16 0.128-0.288 0.448-0.576 0.576-1.184 0.576-2.336 1.152-3.488 1.76s-2.496 1.312-3.776 1.728c-1.312 0.448-2.496 1.024-3.808 1.472-1.888 0.576-3.904 1.152-5.792 1.6-1.024 0.288-2.208 0.416-3.2 0.576-0.896 0.128-1.92 0.288-2.784 0.288-0.864 0.16-1.44 0.16-2.176 0.16zM23.872 6.976c0 0 0 0 0 0 0-0.128 0 0 0 0-0.32 0-0.608 0.16-0.736 0.16-1.76 0.288-3.36 0.704-5.088 0.992-2.048 0.448-4.096 0.896-6.112 1.312-1.472 0.288-2.912 0.608-4.384 0.896-0.576 0.128-1.152 0-1.6-0.448-0.288-0.288-0.416-0.288-0.576 0.16 0 0 0 0 0 0.128-0.128 0.448-0.128 0.864 0 1.312 0.16 0.736 0.448 1.44 0.576 2.176 0.32 1.312 0.736 2.624 1.024 3.936 0 0.448 0.16 0.864 0.288 1.312 0 0.128 0.16 0.128 0.288 0.128 0.608-0.288 1.312-0.576 1.92-0.704 0.864-0.288 1.728-0.736 2.752-1.024s1.888-0.576 2.912-0.864c0.864-0.32 1.728-0.608 2.624-0.896 0.288-0.128 0.576-0.128 0.864-0.128 0.448 0.128 0.736 0.128 1.152 0.288 0.736 0.128 1.6 0.416 2.336 0.576 0.16 0 0.16 0 0.288-0.16 0.16-0.416 0.16-0.864 0.288-1.28 0.448-2.208 0.864-4.512 1.312-6.72-0.288-0.288-0.128-0.704-0.128-1.152z"></path>
    </symbol>

    <symbol id="icon-scottish-terrier" viewBox="0 0 32 32">
      <title>scottish-terrier</title>
      <path class="path1" d="M31.136 21.248c0-0.448-0.16-0.896-0.16-1.312s0-0.896-0.288-1.312c0-0.16 0-0.16 0-0.288s0-0.288 0-0.448c-0.128-0.864-0.416-1.728-0.576-2.624-0.16-0.704 0-1.44 0-2.176 0.128-0.864 0.288-1.888 0-2.752-0.16-0.608-0.448-1.184-0.864-1.6-0.288-0.448-0.736-0.736-1.184-1.184-0.128-0.128-0.288-0.288-0.288-0.576 0-0.576 0-1.152 0-1.888 0-0.288 0-0.736-0.128-1.024 0 0 0 0 0 0-0.16-0.416-0.448-0.736-0.736-1.152-0.288-0.288-1.024-0.448-1.312 0s-0.448 0.864-0.576 1.44c-0.16 0.896-0.288 1.472-0.576 2.048-0.16 0.128-0.16 0.288-0.288 0.448-0.448 0.288-0.896 0.576-1.472 0.704-0.736 0.16-1.44 0.448-2.176 0.448s-1.312 0.128-2.048 0.288c-0.704 0.288-1.6 0.288-2.304 0.576-0.16 0-0.288 0-0.448 0-0.288-0.288-0.736-0.576-1.024-1.024 0-0.128-0.128-0.128-0.128-0.128-0.16-0.288-0.448-0.448-0.608-0.864-0.128-0.16-0.288-0.448-0.416-0.608-0.288-0.288-0.448-0.704-0.576-0.992s-0.288-0.608-0.448-0.736c-0.16-0.288-0.288-0.576-0.448-0.864-0.288-0.608-0.704-1.024-0.992-1.6-0.32-0.448-0.736-1.024-1.184-1.312-0.288-0.16-0.576-0.288-0.864-0.448-0.448-0.16-0.576 0-0.736 0.448 0 0.128 0 0.288 0 0.416s0 0.16-0.128 0.16-0.16 0-0.16-0.16c-0.288-0.288-0.576-0.576-1.024-0.864-0.128-0.16-0.416-0.288-0.704-0.16s-0.32 0.448-0.32 0.736c0 0.288 0 0.448 0 0.736s0 0.736 0 1.024c0 0.128 0 0.288-0.288 0.416 0 0.288-0.288 0.448-0.416 0.576-0.288 0.32-0.576 0.608-0.896 0.896s-0.576 0.576-0.864 0.864c-0.128 0.288-0.288 0.576-0.128 1.024 0 0 0 0.128 0 0.128 0 0.16 0.128 0.288 0.288 0.448 0.288 0.16 0.416 0.288 0.416 0.576 0 0.16 0 0.16 0.16 0.288s0.128 0.288 0 0.576c0 0.16-0.16 0.16-0.16 0.32-0.288 0.416-0.704 0.864-1.152 1.28s-0.864 0.896-1.152 1.472c-0.16 0.288-0.288 0.448-0.448 0.736-0.288 0.288-0.288 0.576-0.288 0.864 0 0.128 0 0.288-0.16 0.448s-0.128 0.288 0 0.576c0 0.128 0.16 0.128 0 0.288-0.128 0.288 0 0.576 0 0.864 0 0.448 0.288 0.736 0.448 1.024 0.288 0.288 0.576 0.576 0.864 0.864 0.448 0.448 0.896 0.736 1.312 1.024s0.864 0.288 1.312 0.288c0.736 0 1.472 0 2.048-0.416 0.128 0 0.128 0 0.128 0 0 0.416 0 0.864-0.128 1.28s-0.288 0.896-0.448 1.312c0 0.448-0.128 0.896-0.448 1.184 0 0 0 0.128 0 0.128-0.128 0.16 0 0.448-0.128 0.736s-0.16 0.576-0.16 0.864c0.16 0.576-0.128 1.024-0.128 1.6 0 0.736-0.448 1.312-0.736 1.888s-0.288 1.184 0 1.92c0.16 0.288 0.576 0.576 0.864 0.704 0.16 0.16 0.288 0.16 0.448 0 0.864-0.416 1.888-0.864 2.752-1.152 0.16 0 0.288-0.16 0.288-0.288 0.32-0.448 0.32-0.736 0.448-1.184s0.16-1.024 0.288-1.44c0.16-0.576 0.448-1.024 0.576-1.6 0-0.16 0.16-0.448 0.288-0.576 0 0.128 0 0.128 0 0.288-0.288 0.864-0.416 1.728-0.416 2.752s-0.288 1.888-0.576 2.784c-0.16 0.416-0.288 0.864-0.448 1.312 0 0.704 0.16 0.992 0.736 1.152 0.288 0.128 0.576 0.128 0.864 0.288 0.448 0 1.024 0.16 1.44 0 0.16 0 0.448-0.16 0.608-0.16 0.288 0 0.416 0 0.704-0.288 0.448-0.416 0.736-0.992 0.896-1.6 0-0.576 0.128-0.992 0.128-1.6 0-0.288 0-0.704 0.16-0.992 0.128-0.448 0.288-0.896 0.416-1.312s0.288-0.896 0.448-1.312c0.128-0.608 0.448-1.024 0.736-1.472s0.416-1.024 0.416-1.6c0-0.288 0.288-0.576 0.576-0.576 0.896 0 1.76-0.288 2.624-0.576 0.448-0.16 1.024-0.448 1.472-0.736 0 0 0.128-0.128 0.128 0 0 0 0 0.16 0 0.16-0.128 0.416 0 0.864 0.288 1.152 0.288 0.448 0.736 0.576 1.184 0.736 0.128 0 0.288 0 0.416 0 0.448-0.288 0.736-0.448 1.184-0.576 0.576-0.16 0.864-0.736 0.864-1.312s0-1.024 0-1.6c0 0 0-0.16 0-0.16s0.16 0 0.16 0c0.128 0.16 0.288 0.288 0.288 0.448 0.416 0.416 0.704 1.024 0.576 1.728s-0.288 1.312-0.16 2.048c0 0.288 0.16 0.448 0.288 0.576 0.288 0.16 0.608 0.288 0.896 0.288 0.576 0.16 0.992 0.16 1.6 0.16 0.288 0 0.576-0.16 0.704-0.288 1.024-0.448 1.184-1.184 1.184-1.888z"></path>
    </symbol>

    <symbol id="icon-currency" viewBox="0 0 27 32">
      <title>currency</title>
      <path class="path1" d="M22.793 16.168h2.767l-0.435-2.676h-2.811l-1.596-8.92-4.15 8.92h-5.607l-4.006-8.92-1.776 8.92h-2.746l-0.484 2.676h2.697l-0.355 1.784h-2.665l-0.484 2.676h2.616l-0.949 4.767h3.074l0.862-4.767h4.375l2.544 5.657 2.621-5.657h4.334l0.775 4.767h3.049l-0.853-4.767h2.694l-0.435-2.676h-2.738l-0.319-1.784zM15.324 16.168l-0.83 1.784h-1.529l-0.801-1.784h3.161zM19.895 16.168l0.29 1.784h-2.659l0.827-1.784h1.542zM9.116 16.168l0.802 1.784h-2.687l0.323-1.784h1.562z"></path>
    </symbol>

    <symbol id="icon-bank" viewBox="0 0 32 32">
      <title>bank</title>
      <path class="path1" d="M23.424 19.936l0.256 1.472h2.24l0.352 2.24h-2.176l0.672 3.968h-2.496l-0.608-3.968h-3.552l-2.144 4.704-2.080-4.704h-3.584l-0.704 3.968h-2.528l0.8-3.968h-2.144l0.384-2.24h2.176l0.288-1.472h-2.208l0.416-2.24h2.24l1.44-7.424 3.296 7.424h4.576l3.392-7.424 1.312 7.424h2.304l0.352 2.24h-2.272zM17.312 19.936l-0.672 1.472h-1.248l-0.672-1.472h2.592zM21.056 19.936l0.256 1.472h-2.176l0.672-1.472h1.248zM12.224 19.936l0.672 1.472h-2.208l0.288-1.472h1.248zM28.576 13.728h3.424l-16-13.728-16 13.728h3.424v18.272h25.152v-18.272z"></path>
    </symbol>
  </defs>
</svg>
